%TF.GenerationSoftware,KiCad,Pcbnew,9.0.1*%
%TF.CreationDate,2025-04-29T17:01:15-07:00*%
%TF.ProjectId,3bp v2.1,33627020-7632-42e3-912e-6b696361645f,rev?*%
%TF.SameCoordinates,Original*%
%TF.FileFunction,Drillmap*%
%TF.FilePolarity,Positive*%
%FSLAX45Y45*%
G04 Gerber Fmt 4.5, Leading zero omitted, Abs format (unit mm)*
G04 Created by KiCad (PCBNEW 9.0.1) date 2025-04-29 17:01:15*
%MOMM*%
%LPD*%
G01*
G04 APERTURE LIST*
%ADD10C,0.254000*%
%ADD11C,0.200000*%
%ADD12C,0.100000*%
%ADD13C,0.101600*%
%ADD14C,0.228600*%
G04 APERTURE END LIST*
D10*
X15339800Y-12002700D02*
X12437900Y-12002700D01*
X12437900Y-12002700D02*
X12437900Y-8149500D01*
X12437900Y-8149500D02*
X15339800Y-8149500D01*
X15339800Y-8149500D02*
X15339800Y-12002700D01*
D11*
D12*
X12474750Y-9944750D02*
X12505250Y-9975250D01*
X12505250Y-9944750D02*
X12474750Y-9975250D01*
X12504750Y-8354750D02*
X12535250Y-8385250D01*
X12535250Y-8354750D02*
X12504750Y-8385250D01*
X12674750Y-11184750D02*
X12705250Y-11215250D01*
X12705250Y-11184750D02*
X12674750Y-11215250D01*
X12693150Y-10074850D02*
X12723650Y-10105350D01*
X12723650Y-10074850D02*
X12693150Y-10105350D01*
X12755350Y-11762650D02*
X12785850Y-11793150D01*
X12785850Y-11762650D02*
X12755350Y-11793150D01*
X12822650Y-10521850D02*
X12853150Y-10552350D01*
X12853150Y-10521850D02*
X12822650Y-10552350D01*
X12884750Y-9394750D02*
X12915250Y-9425250D01*
X12915250Y-9394750D02*
X12884750Y-9425250D01*
X12954750Y-9644750D02*
X12985250Y-9675250D01*
X12985250Y-9644750D02*
X12954750Y-9675250D01*
X12983950Y-11196250D02*
X13014450Y-11226750D01*
X13014450Y-11196250D02*
X12983950Y-11226750D01*
X13091950Y-11760150D02*
X13122450Y-11790650D01*
X13122450Y-11760150D02*
X13091950Y-11790650D01*
X13197350Y-10638750D02*
X13227850Y-10669250D01*
X13227850Y-10638750D02*
X13197350Y-10669250D01*
X13296450Y-10774650D02*
X13326950Y-10805150D01*
X13326950Y-10774650D02*
X13296450Y-10805150D01*
X13380250Y-11187350D02*
X13410750Y-11217850D01*
X13410750Y-11187350D02*
X13380250Y-11217850D01*
X13422150Y-10149750D02*
X13452650Y-10180250D01*
X13452650Y-10149750D02*
X13422150Y-10180250D01*
X13451350Y-11760150D02*
X13481850Y-11790650D01*
X13481850Y-11760150D02*
X13451350Y-11790650D01*
X13540250Y-9717950D02*
X13570750Y-9748450D01*
X13570750Y-9717950D02*
X13540250Y-9748450D01*
X13774750Y-11184750D02*
X13805250Y-11215250D01*
X13805250Y-11184750D02*
X13774750Y-11215250D01*
X13824750Y-11784750D02*
X13855250Y-11815250D01*
X13855250Y-11784750D02*
X13824750Y-11815250D01*
X14019050Y-10118050D02*
X14049550Y-10148550D01*
X14049550Y-10118050D02*
X14019050Y-10148550D01*
X14040650Y-9645550D02*
X14071150Y-9676050D01*
X14071150Y-9645550D02*
X14040650Y-9676050D01*
X14044750Y-10834750D02*
X14075250Y-10865250D01*
X14075250Y-10834750D02*
X14044750Y-10865250D01*
X14154950Y-11766450D02*
X14185450Y-11796950D01*
X14185450Y-11766450D02*
X14154950Y-11796950D01*
X14184750Y-11184750D02*
X14215250Y-11215250D01*
X14215250Y-11184750D02*
X14184750Y-11215250D01*
X14274750Y-8454750D02*
X14305250Y-8485250D01*
X14305250Y-8454750D02*
X14274750Y-8485250D01*
X14279350Y-9734450D02*
X14309850Y-9764950D01*
X14309850Y-9734450D02*
X14279350Y-9764950D01*
X14364750Y-9064750D02*
X14395250Y-9095250D01*
X14395250Y-9064750D02*
X14364750Y-9095250D01*
X14506727Y-10114115D02*
X14537227Y-10144615D01*
X14537227Y-10114115D02*
X14506727Y-10144615D01*
X14511750Y-11763950D02*
X14542250Y-11794450D01*
X14542250Y-11763950D02*
X14511750Y-11794450D01*
X14513782Y-11144953D02*
X14544282Y-11175453D01*
X14544282Y-11144953D02*
X14513782Y-11175453D01*
X14589450Y-8830750D02*
X14619950Y-8861250D01*
X14619950Y-8830750D02*
X14589450Y-8861250D01*
X14600650Y-10443150D02*
X14631150Y-10473650D01*
X14631150Y-10443150D02*
X14600650Y-10473650D01*
X14634750Y-10804750D02*
X14665250Y-10835250D01*
X14665250Y-10804750D02*
X14634750Y-10835250D01*
X14679450Y-8920750D02*
X14709950Y-8951250D01*
X14709950Y-8920750D02*
X14679450Y-8951250D01*
X14694750Y-10104750D02*
X14725250Y-10135250D01*
X14725250Y-10104750D02*
X14694750Y-10135250D01*
X14734750Y-8624750D02*
X14765250Y-8655250D01*
X14765250Y-8624750D02*
X14734750Y-8655250D01*
X14769650Y-11182250D02*
X14800150Y-11212750D01*
X14800150Y-11182250D02*
X14769650Y-11212750D01*
X14794750Y-8764750D02*
X14825250Y-8795250D01*
X14825250Y-8764750D02*
X14794750Y-8795250D01*
X14798850Y-10445650D02*
X14829350Y-10476150D01*
X14829350Y-10445650D02*
X14798850Y-10476150D01*
X14848350Y-11758850D02*
X14878850Y-11789350D01*
X14878850Y-11758850D02*
X14848350Y-11789350D01*
X14894750Y-9804750D02*
X14925250Y-9835250D01*
X14925250Y-9804750D02*
X14894750Y-9835250D01*
X14899450Y-8280750D02*
X14929950Y-8311250D01*
X14929950Y-8280750D02*
X14899450Y-8311250D01*
X14904750Y-8384750D02*
X14935250Y-8415250D01*
X14935250Y-8384750D02*
X14904750Y-8415250D01*
X14971550Y-11517550D02*
X15002050Y-11548050D01*
X15002050Y-11517550D02*
X14971550Y-11548050D01*
X14989450Y-8761800D02*
X15019950Y-8792300D01*
X15019950Y-8761800D02*
X14989450Y-8792300D01*
X14993150Y-10445650D02*
X15023650Y-10476150D01*
X15023650Y-10445650D02*
X14993150Y-10476150D01*
X15004750Y-8184750D02*
X15035250Y-8215250D01*
X15035250Y-8184750D02*
X15004750Y-8215250D01*
X15014750Y-11756350D02*
X15045250Y-11786850D01*
X15045250Y-11756350D02*
X15014750Y-11786850D01*
X15094750Y-10104750D02*
X15125250Y-10135250D01*
X15125250Y-10104750D02*
X15094750Y-10135250D01*
X15109450Y-9090750D02*
X15139950Y-9121250D01*
X15139950Y-9090750D02*
X15109450Y-9121250D01*
X15189950Y-10445650D02*
X15220450Y-10476150D01*
X15220450Y-10445650D02*
X15189950Y-10476150D01*
X15200150Y-9213750D02*
X15230650Y-9244250D01*
X15230650Y-9213750D02*
X15200150Y-9244250D01*
D13*
X13512300Y-8696900D02*
G75*
G02*
X13410700Y-8696900I-50800J0D01*
G01*
X13410700Y-8696900D02*
G75*
G02*
X13512300Y-8696900I50800J0D01*
G01*
D12*
X13512300Y-8697150D02*
X13512300Y-8696650D01*
X13410700Y-8696650D02*
G75*
G02*
X13512300Y-8696650I50800J0D01*
G01*
X13410700Y-8696650D02*
X13410700Y-8697150D01*
X13410700Y-8697150D02*
G75*
G03*
X13512300Y-8697150I50800J0D01*
G01*
D13*
X13512300Y-8950900D02*
G75*
G02*
X13410700Y-8950900I-50800J0D01*
G01*
X13410700Y-8950900D02*
G75*
G02*
X13512300Y-8950900I50800J0D01*
G01*
D12*
X13512300Y-8951150D02*
X13512300Y-8950650D01*
X13410700Y-8950650D02*
G75*
G02*
X13512300Y-8950650I50800J0D01*
G01*
X13410700Y-8950650D02*
X13410700Y-8951150D01*
X13410700Y-8951150D02*
G75*
G03*
X13512300Y-8951150I50800J0D01*
G01*
D13*
X13715500Y-8950900D02*
G75*
G02*
X13613900Y-8950900I-50800J0D01*
G01*
X13613900Y-8950900D02*
G75*
G02*
X13715500Y-8950900I50800J0D01*
G01*
D12*
X13715500Y-8951150D02*
X13715500Y-8950650D01*
X13613900Y-8950650D02*
G75*
G02*
X13715500Y-8950650I50800J0D01*
G01*
X13613900Y-8950650D02*
X13613900Y-8951150D01*
X13613900Y-8951150D02*
G75*
G03*
X13715500Y-8951150I50800J0D01*
G01*
D13*
X13842500Y-8696900D02*
G75*
G02*
X13740900Y-8696900I-50800J0D01*
G01*
X13740900Y-8696900D02*
G75*
G02*
X13842500Y-8696900I50800J0D01*
G01*
D12*
X13842500Y-8697150D02*
X13842500Y-8696650D01*
X13740900Y-8696650D02*
G75*
G02*
X13842500Y-8696650I50800J0D01*
G01*
X13740900Y-8696650D02*
X13740900Y-8697150D01*
X13740900Y-8697150D02*
G75*
G03*
X13842500Y-8697150I50800J0D01*
G01*
D13*
X13918700Y-8950900D02*
G75*
G02*
X13817100Y-8950900I-50800J0D01*
G01*
X13817100Y-8950900D02*
G75*
G02*
X13918700Y-8950900I50800J0D01*
G01*
D12*
X13918700Y-8951150D02*
X13918700Y-8950650D01*
X13817100Y-8950650D02*
G75*
G02*
X13918700Y-8950650I50800J0D01*
G01*
X13817100Y-8950650D02*
X13817100Y-8951150D01*
X13817100Y-8951150D02*
G75*
G03*
X13918700Y-8951150I50800J0D01*
G01*
D13*
X14045700Y-8696900D02*
G75*
G02*
X13944100Y-8696900I-50800J0D01*
G01*
X13944100Y-8696900D02*
G75*
G02*
X14045700Y-8696900I50800J0D01*
G01*
D12*
X14045700Y-8697150D02*
X14045700Y-8696650D01*
X13944100Y-8696650D02*
G75*
G02*
X14045700Y-8696650I50800J0D01*
G01*
X13944100Y-8696650D02*
X13944100Y-8697150D01*
X13944100Y-8697150D02*
G75*
G03*
X14045700Y-8697150I50800J0D01*
G01*
D13*
X14121900Y-8950900D02*
G75*
G02*
X14020300Y-8950900I-50800J0D01*
G01*
X14020300Y-8950900D02*
G75*
G02*
X14121900Y-8950900I50800J0D01*
G01*
D12*
X14121900Y-8951150D02*
X14121900Y-8950650D01*
X14020300Y-8950650D02*
G75*
G02*
X14121900Y-8950650I50800J0D01*
G01*
X14020300Y-8950650D02*
X14020300Y-8951150D01*
X14020300Y-8951150D02*
G75*
G03*
X14121900Y-8951150I50800J0D01*
G01*
D13*
X14325100Y-8696900D02*
G75*
G02*
X14223500Y-8696900I-50800J0D01*
G01*
X14223500Y-8696900D02*
G75*
G02*
X14325100Y-8696900I50800J0D01*
G01*
D12*
X14325100Y-8697150D02*
X14325100Y-8696650D01*
X14223500Y-8696650D02*
G75*
G02*
X14325100Y-8696650I50800J0D01*
G01*
X14223500Y-8696650D02*
X14223500Y-8697150D01*
X14223500Y-8697150D02*
G75*
G03*
X14325100Y-8697150I50800J0D01*
G01*
D13*
X14325100Y-8950900D02*
G75*
G02*
X14223500Y-8950900I-50800J0D01*
G01*
X14223500Y-8950900D02*
G75*
G02*
X14325100Y-8950900I50800J0D01*
G01*
D12*
X14325100Y-8951150D02*
X14325100Y-8950650D01*
X14223500Y-8950650D02*
G75*
G02*
X14325100Y-8950650I50800J0D01*
G01*
X14223500Y-8950650D02*
X14223500Y-8951150D01*
X14223500Y-8951150D02*
G75*
G03*
X14325100Y-8951150I50800J0D01*
G01*
D14*
X13144000Y-8303200D02*
X13144000Y-8531800D01*
X13029700Y-8417500D02*
X13258300Y-8417500D01*
D12*
X13258300Y-8417750D02*
X13258300Y-8417250D01*
X13029700Y-8417250D02*
G75*
G02*
X13258300Y-8417250I114300J0D01*
G01*
X13029700Y-8417250D02*
X13029700Y-8417750D01*
X13029700Y-8417750D02*
G75*
G03*
X13258300Y-8417750I114300J0D01*
G01*
D14*
X13867900Y-8227000D02*
X13867900Y-8455600D01*
X13753600Y-8341300D02*
X13982200Y-8341300D01*
D12*
X13982200Y-8341550D02*
X13982200Y-8341050D01*
X13753600Y-8341050D02*
G75*
G02*
X13982200Y-8341050I114300J0D01*
G01*
X13753600Y-8341050D02*
X13753600Y-8341550D01*
X13753600Y-8341550D02*
G75*
G03*
X13982200Y-8341550I114300J0D01*
G01*
D14*
X14591800Y-8303200D02*
X14591800Y-8531800D01*
X14477500Y-8417500D02*
X14706100Y-8417500D01*
D12*
X14706100Y-8417750D02*
X14706100Y-8417250D01*
X14477500Y-8417250D02*
G75*
G02*
X14706100Y-8417250I114300J0D01*
G01*
X14477500Y-8417250D02*
X14477500Y-8417750D01*
X14477500Y-8417750D02*
G75*
G03*
X14706100Y-8417750I114300J0D01*
G01*
D11*
X12685977Y-12326884D02*
X12685977Y-12126884D01*
X12685977Y-12126884D02*
X12733596Y-12126884D01*
X12733596Y-12126884D02*
X12762167Y-12136408D01*
X12762167Y-12136408D02*
X12781215Y-12155455D01*
X12781215Y-12155455D02*
X12790739Y-12174503D01*
X12790739Y-12174503D02*
X12800262Y-12212598D01*
X12800262Y-12212598D02*
X12800262Y-12241169D01*
X12800262Y-12241169D02*
X12790739Y-12279265D01*
X12790739Y-12279265D02*
X12781215Y-12298312D01*
X12781215Y-12298312D02*
X12762167Y-12317360D01*
X12762167Y-12317360D02*
X12733596Y-12326884D01*
X12733596Y-12326884D02*
X12685977Y-12326884D01*
X12885977Y-12326884D02*
X12885977Y-12193550D01*
X12885977Y-12231646D02*
X12895501Y-12212598D01*
X12895501Y-12212598D02*
X12905024Y-12203074D01*
X12905024Y-12203074D02*
X12924072Y-12193550D01*
X12924072Y-12193550D02*
X12943120Y-12193550D01*
X13009786Y-12326884D02*
X13009786Y-12193550D01*
X13009786Y-12126884D02*
X13000262Y-12136408D01*
X13000262Y-12136408D02*
X13009786Y-12145931D01*
X13009786Y-12145931D02*
X13019310Y-12136408D01*
X13019310Y-12136408D02*
X13009786Y-12126884D01*
X13009786Y-12126884D02*
X13009786Y-12145931D01*
X13133596Y-12326884D02*
X13114548Y-12317360D01*
X13114548Y-12317360D02*
X13105024Y-12298312D01*
X13105024Y-12298312D02*
X13105024Y-12126884D01*
X13238358Y-12326884D02*
X13219310Y-12317360D01*
X13219310Y-12317360D02*
X13209786Y-12298312D01*
X13209786Y-12298312D02*
X13209786Y-12126884D01*
X13466929Y-12326884D02*
X13466929Y-12126884D01*
X13466929Y-12126884D02*
X13533596Y-12269741D01*
X13533596Y-12269741D02*
X13600262Y-12126884D01*
X13600262Y-12126884D02*
X13600262Y-12326884D01*
X13781215Y-12326884D02*
X13781215Y-12222122D01*
X13781215Y-12222122D02*
X13771691Y-12203074D01*
X13771691Y-12203074D02*
X13752643Y-12193550D01*
X13752643Y-12193550D02*
X13714548Y-12193550D01*
X13714548Y-12193550D02*
X13695501Y-12203074D01*
X13781215Y-12317360D02*
X13762167Y-12326884D01*
X13762167Y-12326884D02*
X13714548Y-12326884D01*
X13714548Y-12326884D02*
X13695501Y-12317360D01*
X13695501Y-12317360D02*
X13685977Y-12298312D01*
X13685977Y-12298312D02*
X13685977Y-12279265D01*
X13685977Y-12279265D02*
X13695501Y-12260217D01*
X13695501Y-12260217D02*
X13714548Y-12250693D01*
X13714548Y-12250693D02*
X13762167Y-12250693D01*
X13762167Y-12250693D02*
X13781215Y-12241169D01*
X13876453Y-12193550D02*
X13876453Y-12393550D01*
X13876453Y-12203074D02*
X13895501Y-12193550D01*
X13895501Y-12193550D02*
X13933596Y-12193550D01*
X13933596Y-12193550D02*
X13952643Y-12203074D01*
X13952643Y-12203074D02*
X13962167Y-12212598D01*
X13962167Y-12212598D02*
X13971691Y-12231646D01*
X13971691Y-12231646D02*
X13971691Y-12288788D01*
X13971691Y-12288788D02*
X13962167Y-12307836D01*
X13962167Y-12307836D02*
X13952643Y-12317360D01*
X13952643Y-12317360D02*
X13933596Y-12326884D01*
X13933596Y-12326884D02*
X13895501Y-12326884D01*
X13895501Y-12326884D02*
X13876453Y-12317360D01*
X14057405Y-12307836D02*
X14066929Y-12317360D01*
X14066929Y-12317360D02*
X14057405Y-12326884D01*
X14057405Y-12326884D02*
X14047882Y-12317360D01*
X14047882Y-12317360D02*
X14057405Y-12307836D01*
X14057405Y-12307836D02*
X14057405Y-12326884D01*
X14057405Y-12203074D02*
X14066929Y-12212598D01*
X14066929Y-12212598D02*
X14057405Y-12222122D01*
X14057405Y-12222122D02*
X14047882Y-12212598D01*
X14047882Y-12212598D02*
X14057405Y-12203074D01*
X14057405Y-12203074D02*
X14057405Y-12222122D01*
D12*
X12394700Y-12640150D02*
X12425200Y-12670650D01*
X12425200Y-12640150D02*
X12394700Y-12670650D01*
D11*
X12724072Y-12546884D02*
X12743120Y-12546884D01*
X12743120Y-12546884D02*
X12762167Y-12556408D01*
X12762167Y-12556408D02*
X12771691Y-12565931D01*
X12771691Y-12565931D02*
X12781215Y-12584979D01*
X12781215Y-12584979D02*
X12790739Y-12623074D01*
X12790739Y-12623074D02*
X12790739Y-12670693D01*
X12790739Y-12670693D02*
X12781215Y-12708788D01*
X12781215Y-12708788D02*
X12771691Y-12727836D01*
X12771691Y-12727836D02*
X12762167Y-12737360D01*
X12762167Y-12737360D02*
X12743120Y-12746884D01*
X12743120Y-12746884D02*
X12724072Y-12746884D01*
X12724072Y-12746884D02*
X12705024Y-12737360D01*
X12705024Y-12737360D02*
X12695501Y-12727836D01*
X12695501Y-12727836D02*
X12685977Y-12708788D01*
X12685977Y-12708788D02*
X12676453Y-12670693D01*
X12676453Y-12670693D02*
X12676453Y-12623074D01*
X12676453Y-12623074D02*
X12685977Y-12584979D01*
X12685977Y-12584979D02*
X12695501Y-12565931D01*
X12695501Y-12565931D02*
X12705024Y-12556408D01*
X12705024Y-12556408D02*
X12724072Y-12546884D01*
X12876453Y-12727836D02*
X12885977Y-12737360D01*
X12885977Y-12737360D02*
X12876453Y-12746884D01*
X12876453Y-12746884D02*
X12866929Y-12737360D01*
X12866929Y-12737360D02*
X12876453Y-12727836D01*
X12876453Y-12727836D02*
X12876453Y-12746884D01*
X12952643Y-12546884D02*
X13076453Y-12546884D01*
X13076453Y-12546884D02*
X13009786Y-12623074D01*
X13009786Y-12623074D02*
X13038358Y-12623074D01*
X13038358Y-12623074D02*
X13057405Y-12632598D01*
X13057405Y-12632598D02*
X13066929Y-12642122D01*
X13066929Y-12642122D02*
X13076453Y-12661169D01*
X13076453Y-12661169D02*
X13076453Y-12708788D01*
X13076453Y-12708788D02*
X13066929Y-12727836D01*
X13066929Y-12727836D02*
X13057405Y-12737360D01*
X13057405Y-12737360D02*
X13038358Y-12746884D01*
X13038358Y-12746884D02*
X12981215Y-12746884D01*
X12981215Y-12746884D02*
X12962167Y-12737360D01*
X12962167Y-12737360D02*
X12952643Y-12727836D01*
X13200262Y-12546884D02*
X13219310Y-12546884D01*
X13219310Y-12546884D02*
X13238358Y-12556408D01*
X13238358Y-12556408D02*
X13247882Y-12565931D01*
X13247882Y-12565931D02*
X13257405Y-12584979D01*
X13257405Y-12584979D02*
X13266929Y-12623074D01*
X13266929Y-12623074D02*
X13266929Y-12670693D01*
X13266929Y-12670693D02*
X13257405Y-12708788D01*
X13257405Y-12708788D02*
X13247882Y-12727836D01*
X13247882Y-12727836D02*
X13238358Y-12737360D01*
X13238358Y-12737360D02*
X13219310Y-12746884D01*
X13219310Y-12746884D02*
X13200262Y-12746884D01*
X13200262Y-12746884D02*
X13181215Y-12737360D01*
X13181215Y-12737360D02*
X13171691Y-12727836D01*
X13171691Y-12727836D02*
X13162167Y-12708788D01*
X13162167Y-12708788D02*
X13152643Y-12670693D01*
X13152643Y-12670693D02*
X13152643Y-12623074D01*
X13152643Y-12623074D02*
X13162167Y-12584979D01*
X13162167Y-12584979D02*
X13171691Y-12565931D01*
X13171691Y-12565931D02*
X13181215Y-12556408D01*
X13181215Y-12556408D02*
X13200262Y-12546884D01*
X13447882Y-12546884D02*
X13352643Y-12546884D01*
X13352643Y-12546884D02*
X13343120Y-12642122D01*
X13343120Y-12642122D02*
X13352643Y-12632598D01*
X13352643Y-12632598D02*
X13371691Y-12623074D01*
X13371691Y-12623074D02*
X13419310Y-12623074D01*
X13419310Y-12623074D02*
X13438358Y-12632598D01*
X13438358Y-12632598D02*
X13447882Y-12642122D01*
X13447882Y-12642122D02*
X13457405Y-12661169D01*
X13457405Y-12661169D02*
X13457405Y-12708788D01*
X13457405Y-12708788D02*
X13447882Y-12727836D01*
X13447882Y-12727836D02*
X13438358Y-12737360D01*
X13438358Y-12737360D02*
X13419310Y-12746884D01*
X13419310Y-12746884D02*
X13371691Y-12746884D01*
X13371691Y-12746884D02*
X13352643Y-12737360D01*
X13352643Y-12737360D02*
X13343120Y-12727836D01*
X13543120Y-12746884D02*
X13543120Y-12613550D01*
X13543120Y-12632598D02*
X13552643Y-12623074D01*
X13552643Y-12623074D02*
X13571691Y-12613550D01*
X13571691Y-12613550D02*
X13600263Y-12613550D01*
X13600263Y-12613550D02*
X13619310Y-12623074D01*
X13619310Y-12623074D02*
X13628834Y-12642122D01*
X13628834Y-12642122D02*
X13628834Y-12746884D01*
X13628834Y-12642122D02*
X13638358Y-12623074D01*
X13638358Y-12623074D02*
X13657405Y-12613550D01*
X13657405Y-12613550D02*
X13685977Y-12613550D01*
X13685977Y-12613550D02*
X13705024Y-12623074D01*
X13705024Y-12623074D02*
X13714548Y-12642122D01*
X13714548Y-12642122D02*
X13714548Y-12746884D01*
X13809786Y-12746884D02*
X13809786Y-12613550D01*
X13809786Y-12632598D02*
X13819310Y-12623074D01*
X13819310Y-12623074D02*
X13838358Y-12613550D01*
X13838358Y-12613550D02*
X13866929Y-12613550D01*
X13866929Y-12613550D02*
X13885977Y-12623074D01*
X13885977Y-12623074D02*
X13895501Y-12642122D01*
X13895501Y-12642122D02*
X13895501Y-12746884D01*
X13895501Y-12642122D02*
X13905024Y-12623074D01*
X13905024Y-12623074D02*
X13924072Y-12613550D01*
X13924072Y-12613550D02*
X13952643Y-12613550D01*
X13952643Y-12613550D02*
X13971691Y-12623074D01*
X13971691Y-12623074D02*
X13981215Y-12642122D01*
X13981215Y-12642122D02*
X13981215Y-12746884D01*
X14371691Y-12537360D02*
X14200263Y-12794503D01*
X14628834Y-12546884D02*
X14647882Y-12546884D01*
X14647882Y-12546884D02*
X14666929Y-12556408D01*
X14666929Y-12556408D02*
X14676453Y-12565931D01*
X14676453Y-12565931D02*
X14685977Y-12584979D01*
X14685977Y-12584979D02*
X14695501Y-12623074D01*
X14695501Y-12623074D02*
X14695501Y-12670693D01*
X14695501Y-12670693D02*
X14685977Y-12708788D01*
X14685977Y-12708788D02*
X14676453Y-12727836D01*
X14676453Y-12727836D02*
X14666929Y-12737360D01*
X14666929Y-12737360D02*
X14647882Y-12746884D01*
X14647882Y-12746884D02*
X14628834Y-12746884D01*
X14628834Y-12746884D02*
X14609786Y-12737360D01*
X14609786Y-12737360D02*
X14600263Y-12727836D01*
X14600263Y-12727836D02*
X14590739Y-12708788D01*
X14590739Y-12708788D02*
X14581215Y-12670693D01*
X14581215Y-12670693D02*
X14581215Y-12623074D01*
X14581215Y-12623074D02*
X14590739Y-12584979D01*
X14590739Y-12584979D02*
X14600263Y-12565931D01*
X14600263Y-12565931D02*
X14609786Y-12556408D01*
X14609786Y-12556408D02*
X14628834Y-12546884D01*
X14781215Y-12727836D02*
X14790739Y-12737360D01*
X14790739Y-12737360D02*
X14781215Y-12746884D01*
X14781215Y-12746884D02*
X14771691Y-12737360D01*
X14771691Y-12737360D02*
X14781215Y-12727836D01*
X14781215Y-12727836D02*
X14781215Y-12746884D01*
X14914548Y-12546884D02*
X14933596Y-12546884D01*
X14933596Y-12546884D02*
X14952644Y-12556408D01*
X14952644Y-12556408D02*
X14962167Y-12565931D01*
X14962167Y-12565931D02*
X14971691Y-12584979D01*
X14971691Y-12584979D02*
X14981215Y-12623074D01*
X14981215Y-12623074D02*
X14981215Y-12670693D01*
X14981215Y-12670693D02*
X14971691Y-12708788D01*
X14971691Y-12708788D02*
X14962167Y-12727836D01*
X14962167Y-12727836D02*
X14952644Y-12737360D01*
X14952644Y-12737360D02*
X14933596Y-12746884D01*
X14933596Y-12746884D02*
X14914548Y-12746884D01*
X14914548Y-12746884D02*
X14895501Y-12737360D01*
X14895501Y-12737360D02*
X14885977Y-12727836D01*
X14885977Y-12727836D02*
X14876453Y-12708788D01*
X14876453Y-12708788D02*
X14866929Y-12670693D01*
X14866929Y-12670693D02*
X14866929Y-12623074D01*
X14866929Y-12623074D02*
X14876453Y-12584979D01*
X14876453Y-12584979D02*
X14885977Y-12565931D01*
X14885977Y-12565931D02*
X14895501Y-12556408D01*
X14895501Y-12556408D02*
X14914548Y-12546884D01*
X15171691Y-12746884D02*
X15057406Y-12746884D01*
X15114548Y-12746884D02*
X15114548Y-12546884D01*
X15114548Y-12546884D02*
X15095501Y-12575455D01*
X15095501Y-12575455D02*
X15076453Y-12594503D01*
X15076453Y-12594503D02*
X15057406Y-12604027D01*
X15247882Y-12565931D02*
X15257406Y-12556408D01*
X15257406Y-12556408D02*
X15276453Y-12546884D01*
X15276453Y-12546884D02*
X15324072Y-12546884D01*
X15324072Y-12546884D02*
X15343120Y-12556408D01*
X15343120Y-12556408D02*
X15352644Y-12565931D01*
X15352644Y-12565931D02*
X15362167Y-12584979D01*
X15362167Y-12584979D02*
X15362167Y-12604027D01*
X15362167Y-12604027D02*
X15352644Y-12632598D01*
X15352644Y-12632598D02*
X15238358Y-12746884D01*
X15238358Y-12746884D02*
X15362167Y-12746884D01*
X15485977Y-12546884D02*
X15505025Y-12546884D01*
X15505025Y-12546884D02*
X15524072Y-12556408D01*
X15524072Y-12556408D02*
X15533596Y-12565931D01*
X15533596Y-12565931D02*
X15543120Y-12584979D01*
X15543120Y-12584979D02*
X15552644Y-12623074D01*
X15552644Y-12623074D02*
X15552644Y-12670693D01*
X15552644Y-12670693D02*
X15543120Y-12708788D01*
X15543120Y-12708788D02*
X15533596Y-12727836D01*
X15533596Y-12727836D02*
X15524072Y-12737360D01*
X15524072Y-12737360D02*
X15505025Y-12746884D01*
X15505025Y-12746884D02*
X15485977Y-12746884D01*
X15485977Y-12746884D02*
X15466929Y-12737360D01*
X15466929Y-12737360D02*
X15457406Y-12727836D01*
X15457406Y-12727836D02*
X15447882Y-12708788D01*
X15447882Y-12708788D02*
X15438358Y-12670693D01*
X15438358Y-12670693D02*
X15438358Y-12623074D01*
X15438358Y-12623074D02*
X15447882Y-12584979D01*
X15447882Y-12584979D02*
X15457406Y-12565931D01*
X15457406Y-12565931D02*
X15466929Y-12556408D01*
X15466929Y-12556408D02*
X15485977Y-12546884D01*
X15628834Y-12546884D02*
X15628834Y-12584979D01*
X15705025Y-12546884D02*
X15705025Y-12584979D01*
X16000263Y-12823074D02*
X15990739Y-12813550D01*
X15990739Y-12813550D02*
X15971691Y-12784979D01*
X15971691Y-12784979D02*
X15962168Y-12765931D01*
X15962168Y-12765931D02*
X15952644Y-12737360D01*
X15952644Y-12737360D02*
X15943120Y-12689741D01*
X15943120Y-12689741D02*
X15943120Y-12651646D01*
X15943120Y-12651646D02*
X15952644Y-12604027D01*
X15952644Y-12604027D02*
X15962168Y-12575455D01*
X15962168Y-12575455D02*
X15971691Y-12556408D01*
X15971691Y-12556408D02*
X15990739Y-12527836D01*
X15990739Y-12527836D02*
X16000263Y-12518312D01*
X16171691Y-12546884D02*
X16076453Y-12546884D01*
X16076453Y-12546884D02*
X16066929Y-12642122D01*
X16066929Y-12642122D02*
X16076453Y-12632598D01*
X16076453Y-12632598D02*
X16095501Y-12623074D01*
X16095501Y-12623074D02*
X16143120Y-12623074D01*
X16143120Y-12623074D02*
X16162168Y-12632598D01*
X16162168Y-12632598D02*
X16171691Y-12642122D01*
X16171691Y-12642122D02*
X16181215Y-12661169D01*
X16181215Y-12661169D02*
X16181215Y-12708788D01*
X16181215Y-12708788D02*
X16171691Y-12727836D01*
X16171691Y-12727836D02*
X16162168Y-12737360D01*
X16162168Y-12737360D02*
X16143120Y-12746884D01*
X16143120Y-12746884D02*
X16095501Y-12746884D01*
X16095501Y-12746884D02*
X16076453Y-12737360D01*
X16076453Y-12737360D02*
X16066929Y-12727836D01*
X16371691Y-12746884D02*
X16257406Y-12746884D01*
X16314548Y-12746884D02*
X16314548Y-12546884D01*
X16314548Y-12546884D02*
X16295501Y-12575455D01*
X16295501Y-12575455D02*
X16276453Y-12594503D01*
X16276453Y-12594503D02*
X16257406Y-12604027D01*
X16609787Y-12746884D02*
X16609787Y-12546884D01*
X16695501Y-12746884D02*
X16695501Y-12642122D01*
X16695501Y-12642122D02*
X16685977Y-12623074D01*
X16685977Y-12623074D02*
X16666930Y-12613550D01*
X16666930Y-12613550D02*
X16638358Y-12613550D01*
X16638358Y-12613550D02*
X16619310Y-12623074D01*
X16619310Y-12623074D02*
X16609787Y-12632598D01*
X16819311Y-12746884D02*
X16800263Y-12737360D01*
X16800263Y-12737360D02*
X16790739Y-12727836D01*
X16790739Y-12727836D02*
X16781215Y-12708788D01*
X16781215Y-12708788D02*
X16781215Y-12651646D01*
X16781215Y-12651646D02*
X16790739Y-12632598D01*
X16790739Y-12632598D02*
X16800263Y-12623074D01*
X16800263Y-12623074D02*
X16819311Y-12613550D01*
X16819311Y-12613550D02*
X16847882Y-12613550D01*
X16847882Y-12613550D02*
X16866930Y-12623074D01*
X16866930Y-12623074D02*
X16876453Y-12632598D01*
X16876453Y-12632598D02*
X16885977Y-12651646D01*
X16885977Y-12651646D02*
X16885977Y-12708788D01*
X16885977Y-12708788D02*
X16876453Y-12727836D01*
X16876453Y-12727836D02*
X16866930Y-12737360D01*
X16866930Y-12737360D02*
X16847882Y-12746884D01*
X16847882Y-12746884D02*
X16819311Y-12746884D01*
X17000263Y-12746884D02*
X16981215Y-12737360D01*
X16981215Y-12737360D02*
X16971692Y-12718312D01*
X16971692Y-12718312D02*
X16971692Y-12546884D01*
X17152644Y-12737360D02*
X17133596Y-12746884D01*
X17133596Y-12746884D02*
X17095501Y-12746884D01*
X17095501Y-12746884D02*
X17076453Y-12737360D01*
X17076453Y-12737360D02*
X17066930Y-12718312D01*
X17066930Y-12718312D02*
X17066930Y-12642122D01*
X17066930Y-12642122D02*
X17076453Y-12623074D01*
X17076453Y-12623074D02*
X17095501Y-12613550D01*
X17095501Y-12613550D02*
X17133596Y-12613550D01*
X17133596Y-12613550D02*
X17152644Y-12623074D01*
X17152644Y-12623074D02*
X17162168Y-12642122D01*
X17162168Y-12642122D02*
X17162168Y-12661169D01*
X17162168Y-12661169D02*
X17066930Y-12680217D01*
X17238358Y-12737360D02*
X17257406Y-12746884D01*
X17257406Y-12746884D02*
X17295501Y-12746884D01*
X17295501Y-12746884D02*
X17314549Y-12737360D01*
X17314549Y-12737360D02*
X17324073Y-12718312D01*
X17324073Y-12718312D02*
X17324073Y-12708788D01*
X17324073Y-12708788D02*
X17314549Y-12689741D01*
X17314549Y-12689741D02*
X17295501Y-12680217D01*
X17295501Y-12680217D02*
X17266930Y-12680217D01*
X17266930Y-12680217D02*
X17247882Y-12670693D01*
X17247882Y-12670693D02*
X17238358Y-12651646D01*
X17238358Y-12651646D02*
X17238358Y-12642122D01*
X17238358Y-12642122D02*
X17247882Y-12623074D01*
X17247882Y-12623074D02*
X17266930Y-12613550D01*
X17266930Y-12613550D02*
X17295501Y-12613550D01*
X17295501Y-12613550D02*
X17314549Y-12623074D01*
X17390739Y-12823074D02*
X17400263Y-12813550D01*
X17400263Y-12813550D02*
X17419311Y-12784979D01*
X17419311Y-12784979D02*
X17428834Y-12765931D01*
X17428834Y-12765931D02*
X17438358Y-12737360D01*
X17438358Y-12737360D02*
X17447882Y-12689741D01*
X17447882Y-12689741D02*
X17447882Y-12651646D01*
X17447882Y-12651646D02*
X17438358Y-12604027D01*
X17438358Y-12604027D02*
X17428834Y-12575455D01*
X17428834Y-12575455D02*
X17419311Y-12556408D01*
X17419311Y-12556408D02*
X17400263Y-12527836D01*
X17400263Y-12527836D02*
X17390739Y-12518312D01*
D13*
X12425200Y-12919400D02*
G75*
G02*
X12323600Y-12919400I-50800J0D01*
G01*
X12323600Y-12919400D02*
G75*
G02*
X12425200Y-12919400I50800J0D01*
G01*
D11*
X12790739Y-13010884D02*
X12676453Y-13010884D01*
X12733596Y-13010884D02*
X12733596Y-12810884D01*
X12733596Y-12810884D02*
X12714548Y-12839455D01*
X12714548Y-12839455D02*
X12695501Y-12858503D01*
X12695501Y-12858503D02*
X12676453Y-12868027D01*
X12876453Y-12991836D02*
X12885977Y-13001360D01*
X12885977Y-13001360D02*
X12876453Y-13010884D01*
X12876453Y-13010884D02*
X12866929Y-13001360D01*
X12866929Y-13001360D02*
X12876453Y-12991836D01*
X12876453Y-12991836D02*
X12876453Y-13010884D01*
X13009786Y-12810884D02*
X13028834Y-12810884D01*
X13028834Y-12810884D02*
X13047882Y-12820408D01*
X13047882Y-12820408D02*
X13057405Y-12829931D01*
X13057405Y-12829931D02*
X13066929Y-12848979D01*
X13066929Y-12848979D02*
X13076453Y-12887074D01*
X13076453Y-12887074D02*
X13076453Y-12934693D01*
X13076453Y-12934693D02*
X13066929Y-12972788D01*
X13066929Y-12972788D02*
X13057405Y-12991836D01*
X13057405Y-12991836D02*
X13047882Y-13001360D01*
X13047882Y-13001360D02*
X13028834Y-13010884D01*
X13028834Y-13010884D02*
X13009786Y-13010884D01*
X13009786Y-13010884D02*
X12990739Y-13001360D01*
X12990739Y-13001360D02*
X12981215Y-12991836D01*
X12981215Y-12991836D02*
X12971691Y-12972788D01*
X12971691Y-12972788D02*
X12962167Y-12934693D01*
X12962167Y-12934693D02*
X12962167Y-12887074D01*
X12962167Y-12887074D02*
X12971691Y-12848979D01*
X12971691Y-12848979D02*
X12981215Y-12829931D01*
X12981215Y-12829931D02*
X12990739Y-12820408D01*
X12990739Y-12820408D02*
X13009786Y-12810884D01*
X13266929Y-13010884D02*
X13152643Y-13010884D01*
X13209786Y-13010884D02*
X13209786Y-12810884D01*
X13209786Y-12810884D02*
X13190739Y-12839455D01*
X13190739Y-12839455D02*
X13171691Y-12858503D01*
X13171691Y-12858503D02*
X13152643Y-12868027D01*
X13438358Y-12810884D02*
X13400262Y-12810884D01*
X13400262Y-12810884D02*
X13381215Y-12820408D01*
X13381215Y-12820408D02*
X13371691Y-12829931D01*
X13371691Y-12829931D02*
X13352643Y-12858503D01*
X13352643Y-12858503D02*
X13343120Y-12896598D01*
X13343120Y-12896598D02*
X13343120Y-12972788D01*
X13343120Y-12972788D02*
X13352643Y-12991836D01*
X13352643Y-12991836D02*
X13362167Y-13001360D01*
X13362167Y-13001360D02*
X13381215Y-13010884D01*
X13381215Y-13010884D02*
X13419310Y-13010884D01*
X13419310Y-13010884D02*
X13438358Y-13001360D01*
X13438358Y-13001360D02*
X13447882Y-12991836D01*
X13447882Y-12991836D02*
X13457405Y-12972788D01*
X13457405Y-12972788D02*
X13457405Y-12925169D01*
X13457405Y-12925169D02*
X13447882Y-12906122D01*
X13447882Y-12906122D02*
X13438358Y-12896598D01*
X13438358Y-12896598D02*
X13419310Y-12887074D01*
X13419310Y-12887074D02*
X13381215Y-12887074D01*
X13381215Y-12887074D02*
X13362167Y-12896598D01*
X13362167Y-12896598D02*
X13352643Y-12906122D01*
X13352643Y-12906122D02*
X13343120Y-12925169D01*
X13543120Y-13010884D02*
X13543120Y-12877550D01*
X13543120Y-12896598D02*
X13552643Y-12887074D01*
X13552643Y-12887074D02*
X13571691Y-12877550D01*
X13571691Y-12877550D02*
X13600263Y-12877550D01*
X13600263Y-12877550D02*
X13619310Y-12887074D01*
X13619310Y-12887074D02*
X13628834Y-12906122D01*
X13628834Y-12906122D02*
X13628834Y-13010884D01*
X13628834Y-12906122D02*
X13638358Y-12887074D01*
X13638358Y-12887074D02*
X13657405Y-12877550D01*
X13657405Y-12877550D02*
X13685977Y-12877550D01*
X13685977Y-12877550D02*
X13705024Y-12887074D01*
X13705024Y-12887074D02*
X13714548Y-12906122D01*
X13714548Y-12906122D02*
X13714548Y-13010884D01*
X13809786Y-13010884D02*
X13809786Y-12877550D01*
X13809786Y-12896598D02*
X13819310Y-12887074D01*
X13819310Y-12887074D02*
X13838358Y-12877550D01*
X13838358Y-12877550D02*
X13866929Y-12877550D01*
X13866929Y-12877550D02*
X13885977Y-12887074D01*
X13885977Y-12887074D02*
X13895501Y-12906122D01*
X13895501Y-12906122D02*
X13895501Y-13010884D01*
X13895501Y-12906122D02*
X13905024Y-12887074D01*
X13905024Y-12887074D02*
X13924072Y-12877550D01*
X13924072Y-12877550D02*
X13952643Y-12877550D01*
X13952643Y-12877550D02*
X13971691Y-12887074D01*
X13971691Y-12887074D02*
X13981215Y-12906122D01*
X13981215Y-12906122D02*
X13981215Y-13010884D01*
X14371691Y-12801360D02*
X14200263Y-13058503D01*
X14628834Y-12810884D02*
X14647882Y-12810884D01*
X14647882Y-12810884D02*
X14666929Y-12820408D01*
X14666929Y-12820408D02*
X14676453Y-12829931D01*
X14676453Y-12829931D02*
X14685977Y-12848979D01*
X14685977Y-12848979D02*
X14695501Y-12887074D01*
X14695501Y-12887074D02*
X14695501Y-12934693D01*
X14695501Y-12934693D02*
X14685977Y-12972788D01*
X14685977Y-12972788D02*
X14676453Y-12991836D01*
X14676453Y-12991836D02*
X14666929Y-13001360D01*
X14666929Y-13001360D02*
X14647882Y-13010884D01*
X14647882Y-13010884D02*
X14628834Y-13010884D01*
X14628834Y-13010884D02*
X14609786Y-13001360D01*
X14609786Y-13001360D02*
X14600263Y-12991836D01*
X14600263Y-12991836D02*
X14590739Y-12972788D01*
X14590739Y-12972788D02*
X14581215Y-12934693D01*
X14581215Y-12934693D02*
X14581215Y-12887074D01*
X14581215Y-12887074D02*
X14590739Y-12848979D01*
X14590739Y-12848979D02*
X14600263Y-12829931D01*
X14600263Y-12829931D02*
X14609786Y-12820408D01*
X14609786Y-12820408D02*
X14628834Y-12810884D01*
X14781215Y-12991836D02*
X14790739Y-13001360D01*
X14790739Y-13001360D02*
X14781215Y-13010884D01*
X14781215Y-13010884D02*
X14771691Y-13001360D01*
X14771691Y-13001360D02*
X14781215Y-12991836D01*
X14781215Y-12991836D02*
X14781215Y-13010884D01*
X14914548Y-12810884D02*
X14933596Y-12810884D01*
X14933596Y-12810884D02*
X14952644Y-12820408D01*
X14952644Y-12820408D02*
X14962167Y-12829931D01*
X14962167Y-12829931D02*
X14971691Y-12848979D01*
X14971691Y-12848979D02*
X14981215Y-12887074D01*
X14981215Y-12887074D02*
X14981215Y-12934693D01*
X14981215Y-12934693D02*
X14971691Y-12972788D01*
X14971691Y-12972788D02*
X14962167Y-12991836D01*
X14962167Y-12991836D02*
X14952644Y-13001360D01*
X14952644Y-13001360D02*
X14933596Y-13010884D01*
X14933596Y-13010884D02*
X14914548Y-13010884D01*
X14914548Y-13010884D02*
X14895501Y-13001360D01*
X14895501Y-13001360D02*
X14885977Y-12991836D01*
X14885977Y-12991836D02*
X14876453Y-12972788D01*
X14876453Y-12972788D02*
X14866929Y-12934693D01*
X14866929Y-12934693D02*
X14866929Y-12887074D01*
X14866929Y-12887074D02*
X14876453Y-12848979D01*
X14876453Y-12848979D02*
X14885977Y-12829931D01*
X14885977Y-12829931D02*
X14895501Y-12820408D01*
X14895501Y-12820408D02*
X14914548Y-12810884D01*
X15152644Y-12877550D02*
X15152644Y-13010884D01*
X15105025Y-12801360D02*
X15057406Y-12944217D01*
X15057406Y-12944217D02*
X15181215Y-12944217D01*
X15295501Y-12810884D02*
X15314548Y-12810884D01*
X15314548Y-12810884D02*
X15333596Y-12820408D01*
X15333596Y-12820408D02*
X15343120Y-12829931D01*
X15343120Y-12829931D02*
X15352644Y-12848979D01*
X15352644Y-12848979D02*
X15362167Y-12887074D01*
X15362167Y-12887074D02*
X15362167Y-12934693D01*
X15362167Y-12934693D02*
X15352644Y-12972788D01*
X15352644Y-12972788D02*
X15343120Y-12991836D01*
X15343120Y-12991836D02*
X15333596Y-13001360D01*
X15333596Y-13001360D02*
X15314548Y-13010884D01*
X15314548Y-13010884D02*
X15295501Y-13010884D01*
X15295501Y-13010884D02*
X15276453Y-13001360D01*
X15276453Y-13001360D02*
X15266929Y-12991836D01*
X15266929Y-12991836D02*
X15257406Y-12972788D01*
X15257406Y-12972788D02*
X15247882Y-12934693D01*
X15247882Y-12934693D02*
X15247882Y-12887074D01*
X15247882Y-12887074D02*
X15257406Y-12848979D01*
X15257406Y-12848979D02*
X15266929Y-12829931D01*
X15266929Y-12829931D02*
X15276453Y-12820408D01*
X15276453Y-12820408D02*
X15295501Y-12810884D01*
X15485977Y-12810884D02*
X15505025Y-12810884D01*
X15505025Y-12810884D02*
X15524072Y-12820408D01*
X15524072Y-12820408D02*
X15533596Y-12829931D01*
X15533596Y-12829931D02*
X15543120Y-12848979D01*
X15543120Y-12848979D02*
X15552644Y-12887074D01*
X15552644Y-12887074D02*
X15552644Y-12934693D01*
X15552644Y-12934693D02*
X15543120Y-12972788D01*
X15543120Y-12972788D02*
X15533596Y-12991836D01*
X15533596Y-12991836D02*
X15524072Y-13001360D01*
X15524072Y-13001360D02*
X15505025Y-13010884D01*
X15505025Y-13010884D02*
X15485977Y-13010884D01*
X15485977Y-13010884D02*
X15466929Y-13001360D01*
X15466929Y-13001360D02*
X15457406Y-12991836D01*
X15457406Y-12991836D02*
X15447882Y-12972788D01*
X15447882Y-12972788D02*
X15438358Y-12934693D01*
X15438358Y-12934693D02*
X15438358Y-12887074D01*
X15438358Y-12887074D02*
X15447882Y-12848979D01*
X15447882Y-12848979D02*
X15457406Y-12829931D01*
X15457406Y-12829931D02*
X15466929Y-12820408D01*
X15466929Y-12820408D02*
X15485977Y-12810884D01*
X15628834Y-12810884D02*
X15628834Y-12848979D01*
X15705025Y-12810884D02*
X15705025Y-12848979D01*
X16000263Y-13087074D02*
X15990739Y-13077550D01*
X15990739Y-13077550D02*
X15971691Y-13048979D01*
X15971691Y-13048979D02*
X15962168Y-13029931D01*
X15962168Y-13029931D02*
X15952644Y-13001360D01*
X15952644Y-13001360D02*
X15943120Y-12953741D01*
X15943120Y-12953741D02*
X15943120Y-12915646D01*
X15943120Y-12915646D02*
X15952644Y-12868027D01*
X15952644Y-12868027D02*
X15962168Y-12839455D01*
X15962168Y-12839455D02*
X15971691Y-12820408D01*
X15971691Y-12820408D02*
X15990739Y-12791836D01*
X15990739Y-12791836D02*
X16000263Y-12782312D01*
X16114548Y-12810884D02*
X16133596Y-12810884D01*
X16133596Y-12810884D02*
X16152644Y-12820408D01*
X16152644Y-12820408D02*
X16162168Y-12829931D01*
X16162168Y-12829931D02*
X16171691Y-12848979D01*
X16171691Y-12848979D02*
X16181215Y-12887074D01*
X16181215Y-12887074D02*
X16181215Y-12934693D01*
X16181215Y-12934693D02*
X16171691Y-12972788D01*
X16171691Y-12972788D02*
X16162168Y-12991836D01*
X16162168Y-12991836D02*
X16152644Y-13001360D01*
X16152644Y-13001360D02*
X16133596Y-13010884D01*
X16133596Y-13010884D02*
X16114548Y-13010884D01*
X16114548Y-13010884D02*
X16095501Y-13001360D01*
X16095501Y-13001360D02*
X16085977Y-12991836D01*
X16085977Y-12991836D02*
X16076453Y-12972788D01*
X16076453Y-12972788D02*
X16066929Y-12934693D01*
X16066929Y-12934693D02*
X16066929Y-12887074D01*
X16066929Y-12887074D02*
X16076453Y-12848979D01*
X16076453Y-12848979D02*
X16085977Y-12829931D01*
X16085977Y-12829931D02*
X16095501Y-12820408D01*
X16095501Y-12820408D02*
X16114548Y-12810884D01*
X16419310Y-13010884D02*
X16419310Y-12810884D01*
X16505025Y-13010884D02*
X16505025Y-12906122D01*
X16505025Y-12906122D02*
X16495501Y-12887074D01*
X16495501Y-12887074D02*
X16476453Y-12877550D01*
X16476453Y-12877550D02*
X16447882Y-12877550D01*
X16447882Y-12877550D02*
X16428834Y-12887074D01*
X16428834Y-12887074D02*
X16419310Y-12896598D01*
X16628834Y-13010884D02*
X16609787Y-13001360D01*
X16609787Y-13001360D02*
X16600263Y-12991836D01*
X16600263Y-12991836D02*
X16590739Y-12972788D01*
X16590739Y-12972788D02*
X16590739Y-12915646D01*
X16590739Y-12915646D02*
X16600263Y-12896598D01*
X16600263Y-12896598D02*
X16609787Y-12887074D01*
X16609787Y-12887074D02*
X16628834Y-12877550D01*
X16628834Y-12877550D02*
X16657406Y-12877550D01*
X16657406Y-12877550D02*
X16676453Y-12887074D01*
X16676453Y-12887074D02*
X16685977Y-12896598D01*
X16685977Y-12896598D02*
X16695501Y-12915646D01*
X16695501Y-12915646D02*
X16695501Y-12972788D01*
X16695501Y-12972788D02*
X16685977Y-12991836D01*
X16685977Y-12991836D02*
X16676453Y-13001360D01*
X16676453Y-13001360D02*
X16657406Y-13010884D01*
X16657406Y-13010884D02*
X16628834Y-13010884D01*
X16809787Y-13010884D02*
X16790739Y-13001360D01*
X16790739Y-13001360D02*
X16781215Y-12982312D01*
X16781215Y-12982312D02*
X16781215Y-12810884D01*
X16962168Y-13001360D02*
X16943120Y-13010884D01*
X16943120Y-13010884D02*
X16905025Y-13010884D01*
X16905025Y-13010884D02*
X16885977Y-13001360D01*
X16885977Y-13001360D02*
X16876453Y-12982312D01*
X16876453Y-12982312D02*
X16876453Y-12906122D01*
X16876453Y-12906122D02*
X16885977Y-12887074D01*
X16885977Y-12887074D02*
X16905025Y-12877550D01*
X16905025Y-12877550D02*
X16943120Y-12877550D01*
X16943120Y-12877550D02*
X16962168Y-12887074D01*
X16962168Y-12887074D02*
X16971692Y-12906122D01*
X16971692Y-12906122D02*
X16971692Y-12925169D01*
X16971692Y-12925169D02*
X16876453Y-12944217D01*
X17047882Y-13001360D02*
X17066930Y-13010884D01*
X17066930Y-13010884D02*
X17105025Y-13010884D01*
X17105025Y-13010884D02*
X17124073Y-13001360D01*
X17124073Y-13001360D02*
X17133596Y-12982312D01*
X17133596Y-12982312D02*
X17133596Y-12972788D01*
X17133596Y-12972788D02*
X17124073Y-12953741D01*
X17124073Y-12953741D02*
X17105025Y-12944217D01*
X17105025Y-12944217D02*
X17076453Y-12944217D01*
X17076453Y-12944217D02*
X17057406Y-12934693D01*
X17057406Y-12934693D02*
X17047882Y-12915646D01*
X17047882Y-12915646D02*
X17047882Y-12906122D01*
X17047882Y-12906122D02*
X17057406Y-12887074D01*
X17057406Y-12887074D02*
X17076453Y-12877550D01*
X17076453Y-12877550D02*
X17105025Y-12877550D01*
X17105025Y-12877550D02*
X17124073Y-12887074D01*
X17371692Y-12934693D02*
X17524073Y-12934693D01*
X17447882Y-13010884D02*
X17447882Y-12858503D01*
X17781215Y-13010884D02*
X17819311Y-13010884D01*
X17819311Y-13010884D02*
X17838358Y-13001360D01*
X17838358Y-13001360D02*
X17847882Y-12991836D01*
X17847882Y-12991836D02*
X17866930Y-12963265D01*
X17866930Y-12963265D02*
X17876454Y-12925169D01*
X17876454Y-12925169D02*
X17876454Y-12848979D01*
X17876454Y-12848979D02*
X17866930Y-12829931D01*
X17866930Y-12829931D02*
X17857406Y-12820408D01*
X17857406Y-12820408D02*
X17838358Y-12810884D01*
X17838358Y-12810884D02*
X17800263Y-12810884D01*
X17800263Y-12810884D02*
X17781215Y-12820408D01*
X17781215Y-12820408D02*
X17771692Y-12829931D01*
X17771692Y-12829931D02*
X17762168Y-12848979D01*
X17762168Y-12848979D02*
X17762168Y-12896598D01*
X17762168Y-12896598D02*
X17771692Y-12915646D01*
X17771692Y-12915646D02*
X17781215Y-12925169D01*
X17781215Y-12925169D02*
X17800263Y-12934693D01*
X17800263Y-12934693D02*
X17838358Y-12934693D01*
X17838358Y-12934693D02*
X17857406Y-12925169D01*
X17857406Y-12925169D02*
X17866930Y-12915646D01*
X17866930Y-12915646D02*
X17876454Y-12896598D01*
X18105025Y-13001360D02*
X18124073Y-13010884D01*
X18124073Y-13010884D02*
X18162168Y-13010884D01*
X18162168Y-13010884D02*
X18181216Y-13001360D01*
X18181216Y-13001360D02*
X18190739Y-12982312D01*
X18190739Y-12982312D02*
X18190739Y-12972788D01*
X18190739Y-12972788D02*
X18181216Y-12953741D01*
X18181216Y-12953741D02*
X18162168Y-12944217D01*
X18162168Y-12944217D02*
X18133596Y-12944217D01*
X18133596Y-12944217D02*
X18114549Y-12934693D01*
X18114549Y-12934693D02*
X18105025Y-12915646D01*
X18105025Y-12915646D02*
X18105025Y-12906122D01*
X18105025Y-12906122D02*
X18114549Y-12887074D01*
X18114549Y-12887074D02*
X18133596Y-12877550D01*
X18133596Y-12877550D02*
X18162168Y-12877550D01*
X18162168Y-12877550D02*
X18181216Y-12887074D01*
X18305025Y-13010884D02*
X18285977Y-13001360D01*
X18285977Y-13001360D02*
X18276454Y-12982312D01*
X18276454Y-12982312D02*
X18276454Y-12810884D01*
X18409787Y-13010884D02*
X18390739Y-13001360D01*
X18390739Y-13001360D02*
X18381216Y-12991836D01*
X18381216Y-12991836D02*
X18371692Y-12972788D01*
X18371692Y-12972788D02*
X18371692Y-12915646D01*
X18371692Y-12915646D02*
X18381216Y-12896598D01*
X18381216Y-12896598D02*
X18390739Y-12887074D01*
X18390739Y-12887074D02*
X18409787Y-12877550D01*
X18409787Y-12877550D02*
X18438358Y-12877550D01*
X18438358Y-12877550D02*
X18457406Y-12887074D01*
X18457406Y-12887074D02*
X18466930Y-12896598D01*
X18466930Y-12896598D02*
X18476454Y-12915646D01*
X18476454Y-12915646D02*
X18476454Y-12972788D01*
X18476454Y-12972788D02*
X18466930Y-12991836D01*
X18466930Y-12991836D02*
X18457406Y-13001360D01*
X18457406Y-13001360D02*
X18438358Y-13010884D01*
X18438358Y-13010884D02*
X18409787Y-13010884D01*
X18533597Y-12877550D02*
X18609787Y-12877550D01*
X18562168Y-12810884D02*
X18562168Y-12982312D01*
X18562168Y-12982312D02*
X18571692Y-13001360D01*
X18571692Y-13001360D02*
X18590739Y-13010884D01*
X18590739Y-13010884D02*
X18609787Y-13010884D01*
X18666930Y-13001360D02*
X18685977Y-13010884D01*
X18685977Y-13010884D02*
X18724073Y-13010884D01*
X18724073Y-13010884D02*
X18743120Y-13001360D01*
X18743120Y-13001360D02*
X18752644Y-12982312D01*
X18752644Y-12982312D02*
X18752644Y-12972788D01*
X18752644Y-12972788D02*
X18743120Y-12953741D01*
X18743120Y-12953741D02*
X18724073Y-12944217D01*
X18724073Y-12944217D02*
X18695501Y-12944217D01*
X18695501Y-12944217D02*
X18676454Y-12934693D01*
X18676454Y-12934693D02*
X18666930Y-12915646D01*
X18666930Y-12915646D02*
X18666930Y-12906122D01*
X18666930Y-12906122D02*
X18676454Y-12887074D01*
X18676454Y-12887074D02*
X18695501Y-12877550D01*
X18695501Y-12877550D02*
X18724073Y-12877550D01*
X18724073Y-12877550D02*
X18743120Y-12887074D01*
X18819311Y-13087074D02*
X18828835Y-13077550D01*
X18828835Y-13077550D02*
X18847882Y-13048979D01*
X18847882Y-13048979D02*
X18857406Y-13029931D01*
X18857406Y-13029931D02*
X18866930Y-13001360D01*
X18866930Y-13001360D02*
X18876454Y-12953741D01*
X18876454Y-12953741D02*
X18876454Y-12915646D01*
X18876454Y-12915646D02*
X18866930Y-12868027D01*
X18866930Y-12868027D02*
X18857406Y-12839455D01*
X18857406Y-12839455D02*
X18847882Y-12820408D01*
X18847882Y-12820408D02*
X18828835Y-12791836D01*
X18828835Y-12791836D02*
X18819311Y-12782312D01*
X12325200Y-13083400D02*
X12325200Y-13283400D01*
X12225200Y-13183400D02*
X12425200Y-13183400D01*
X12676453Y-13093931D02*
X12685977Y-13084408D01*
X12685977Y-13084408D02*
X12705024Y-13074884D01*
X12705024Y-13074884D02*
X12752643Y-13074884D01*
X12752643Y-13074884D02*
X12771691Y-13084408D01*
X12771691Y-13084408D02*
X12781215Y-13093931D01*
X12781215Y-13093931D02*
X12790739Y-13112979D01*
X12790739Y-13112979D02*
X12790739Y-13132027D01*
X12790739Y-13132027D02*
X12781215Y-13160598D01*
X12781215Y-13160598D02*
X12666929Y-13274884D01*
X12666929Y-13274884D02*
X12790739Y-13274884D01*
X12876453Y-13255836D02*
X12885977Y-13265360D01*
X12885977Y-13265360D02*
X12876453Y-13274884D01*
X12876453Y-13274884D02*
X12866929Y-13265360D01*
X12866929Y-13265360D02*
X12876453Y-13255836D01*
X12876453Y-13255836D02*
X12876453Y-13274884D01*
X12962167Y-13093931D02*
X12971691Y-13084408D01*
X12971691Y-13084408D02*
X12990739Y-13074884D01*
X12990739Y-13074884D02*
X13038358Y-13074884D01*
X13038358Y-13074884D02*
X13057405Y-13084408D01*
X13057405Y-13084408D02*
X13066929Y-13093931D01*
X13066929Y-13093931D02*
X13076453Y-13112979D01*
X13076453Y-13112979D02*
X13076453Y-13132027D01*
X13076453Y-13132027D02*
X13066929Y-13160598D01*
X13066929Y-13160598D02*
X12952643Y-13274884D01*
X12952643Y-13274884D02*
X13076453Y-13274884D01*
X13190739Y-13160598D02*
X13171691Y-13151074D01*
X13171691Y-13151074D02*
X13162167Y-13141550D01*
X13162167Y-13141550D02*
X13152643Y-13122503D01*
X13152643Y-13122503D02*
X13152643Y-13112979D01*
X13152643Y-13112979D02*
X13162167Y-13093931D01*
X13162167Y-13093931D02*
X13171691Y-13084408D01*
X13171691Y-13084408D02*
X13190739Y-13074884D01*
X13190739Y-13074884D02*
X13228834Y-13074884D01*
X13228834Y-13074884D02*
X13247882Y-13084408D01*
X13247882Y-13084408D02*
X13257405Y-13093931D01*
X13257405Y-13093931D02*
X13266929Y-13112979D01*
X13266929Y-13112979D02*
X13266929Y-13122503D01*
X13266929Y-13122503D02*
X13257405Y-13141550D01*
X13257405Y-13141550D02*
X13247882Y-13151074D01*
X13247882Y-13151074D02*
X13228834Y-13160598D01*
X13228834Y-13160598D02*
X13190739Y-13160598D01*
X13190739Y-13160598D02*
X13171691Y-13170122D01*
X13171691Y-13170122D02*
X13162167Y-13179646D01*
X13162167Y-13179646D02*
X13152643Y-13198693D01*
X13152643Y-13198693D02*
X13152643Y-13236788D01*
X13152643Y-13236788D02*
X13162167Y-13255836D01*
X13162167Y-13255836D02*
X13171691Y-13265360D01*
X13171691Y-13265360D02*
X13190739Y-13274884D01*
X13190739Y-13274884D02*
X13228834Y-13274884D01*
X13228834Y-13274884D02*
X13247882Y-13265360D01*
X13247882Y-13265360D02*
X13257405Y-13255836D01*
X13257405Y-13255836D02*
X13266929Y-13236788D01*
X13266929Y-13236788D02*
X13266929Y-13198693D01*
X13266929Y-13198693D02*
X13257405Y-13179646D01*
X13257405Y-13179646D02*
X13247882Y-13170122D01*
X13247882Y-13170122D02*
X13228834Y-13160598D01*
X13438358Y-13074884D02*
X13400262Y-13074884D01*
X13400262Y-13074884D02*
X13381215Y-13084408D01*
X13381215Y-13084408D02*
X13371691Y-13093931D01*
X13371691Y-13093931D02*
X13352643Y-13122503D01*
X13352643Y-13122503D02*
X13343120Y-13160598D01*
X13343120Y-13160598D02*
X13343120Y-13236788D01*
X13343120Y-13236788D02*
X13352643Y-13255836D01*
X13352643Y-13255836D02*
X13362167Y-13265360D01*
X13362167Y-13265360D02*
X13381215Y-13274884D01*
X13381215Y-13274884D02*
X13419310Y-13274884D01*
X13419310Y-13274884D02*
X13438358Y-13265360D01*
X13438358Y-13265360D02*
X13447882Y-13255836D01*
X13447882Y-13255836D02*
X13457405Y-13236788D01*
X13457405Y-13236788D02*
X13457405Y-13189169D01*
X13457405Y-13189169D02*
X13447882Y-13170122D01*
X13447882Y-13170122D02*
X13438358Y-13160598D01*
X13438358Y-13160598D02*
X13419310Y-13151074D01*
X13419310Y-13151074D02*
X13381215Y-13151074D01*
X13381215Y-13151074D02*
X13362167Y-13160598D01*
X13362167Y-13160598D02*
X13352643Y-13170122D01*
X13352643Y-13170122D02*
X13343120Y-13189169D01*
X13543120Y-13274884D02*
X13543120Y-13141550D01*
X13543120Y-13160598D02*
X13552643Y-13151074D01*
X13552643Y-13151074D02*
X13571691Y-13141550D01*
X13571691Y-13141550D02*
X13600263Y-13141550D01*
X13600263Y-13141550D02*
X13619310Y-13151074D01*
X13619310Y-13151074D02*
X13628834Y-13170122D01*
X13628834Y-13170122D02*
X13628834Y-13274884D01*
X13628834Y-13170122D02*
X13638358Y-13151074D01*
X13638358Y-13151074D02*
X13657405Y-13141550D01*
X13657405Y-13141550D02*
X13685977Y-13141550D01*
X13685977Y-13141550D02*
X13705024Y-13151074D01*
X13705024Y-13151074D02*
X13714548Y-13170122D01*
X13714548Y-13170122D02*
X13714548Y-13274884D01*
X13809786Y-13274884D02*
X13809786Y-13141550D01*
X13809786Y-13160598D02*
X13819310Y-13151074D01*
X13819310Y-13151074D02*
X13838358Y-13141550D01*
X13838358Y-13141550D02*
X13866929Y-13141550D01*
X13866929Y-13141550D02*
X13885977Y-13151074D01*
X13885977Y-13151074D02*
X13895501Y-13170122D01*
X13895501Y-13170122D02*
X13895501Y-13274884D01*
X13895501Y-13170122D02*
X13905024Y-13151074D01*
X13905024Y-13151074D02*
X13924072Y-13141550D01*
X13924072Y-13141550D02*
X13952643Y-13141550D01*
X13952643Y-13141550D02*
X13971691Y-13151074D01*
X13971691Y-13151074D02*
X13981215Y-13170122D01*
X13981215Y-13170122D02*
X13981215Y-13274884D01*
X14371691Y-13065360D02*
X14200263Y-13322503D01*
X14628834Y-13074884D02*
X14647882Y-13074884D01*
X14647882Y-13074884D02*
X14666929Y-13084408D01*
X14666929Y-13084408D02*
X14676453Y-13093931D01*
X14676453Y-13093931D02*
X14685977Y-13112979D01*
X14685977Y-13112979D02*
X14695501Y-13151074D01*
X14695501Y-13151074D02*
X14695501Y-13198693D01*
X14695501Y-13198693D02*
X14685977Y-13236788D01*
X14685977Y-13236788D02*
X14676453Y-13255836D01*
X14676453Y-13255836D02*
X14666929Y-13265360D01*
X14666929Y-13265360D02*
X14647882Y-13274884D01*
X14647882Y-13274884D02*
X14628834Y-13274884D01*
X14628834Y-13274884D02*
X14609786Y-13265360D01*
X14609786Y-13265360D02*
X14600263Y-13255836D01*
X14600263Y-13255836D02*
X14590739Y-13236788D01*
X14590739Y-13236788D02*
X14581215Y-13198693D01*
X14581215Y-13198693D02*
X14581215Y-13151074D01*
X14581215Y-13151074D02*
X14590739Y-13112979D01*
X14590739Y-13112979D02*
X14600263Y-13093931D01*
X14600263Y-13093931D02*
X14609786Y-13084408D01*
X14609786Y-13084408D02*
X14628834Y-13074884D01*
X14781215Y-13255836D02*
X14790739Y-13265360D01*
X14790739Y-13265360D02*
X14781215Y-13274884D01*
X14781215Y-13274884D02*
X14771691Y-13265360D01*
X14771691Y-13265360D02*
X14781215Y-13255836D01*
X14781215Y-13255836D02*
X14781215Y-13274884D01*
X14914548Y-13074884D02*
X14933596Y-13074884D01*
X14933596Y-13074884D02*
X14952644Y-13084408D01*
X14952644Y-13084408D02*
X14962167Y-13093931D01*
X14962167Y-13093931D02*
X14971691Y-13112979D01*
X14971691Y-13112979D02*
X14981215Y-13151074D01*
X14981215Y-13151074D02*
X14981215Y-13198693D01*
X14981215Y-13198693D02*
X14971691Y-13236788D01*
X14971691Y-13236788D02*
X14962167Y-13255836D01*
X14962167Y-13255836D02*
X14952644Y-13265360D01*
X14952644Y-13265360D02*
X14933596Y-13274884D01*
X14933596Y-13274884D02*
X14914548Y-13274884D01*
X14914548Y-13274884D02*
X14895501Y-13265360D01*
X14895501Y-13265360D02*
X14885977Y-13255836D01*
X14885977Y-13255836D02*
X14876453Y-13236788D01*
X14876453Y-13236788D02*
X14866929Y-13198693D01*
X14866929Y-13198693D02*
X14866929Y-13151074D01*
X14866929Y-13151074D02*
X14876453Y-13112979D01*
X14876453Y-13112979D02*
X14885977Y-13093931D01*
X14885977Y-13093931D02*
X14895501Y-13084408D01*
X14895501Y-13084408D02*
X14914548Y-13074884D01*
X15076453Y-13274884D02*
X15114548Y-13274884D01*
X15114548Y-13274884D02*
X15133596Y-13265360D01*
X15133596Y-13265360D02*
X15143120Y-13255836D01*
X15143120Y-13255836D02*
X15162167Y-13227265D01*
X15162167Y-13227265D02*
X15171691Y-13189169D01*
X15171691Y-13189169D02*
X15171691Y-13112979D01*
X15171691Y-13112979D02*
X15162167Y-13093931D01*
X15162167Y-13093931D02*
X15152644Y-13084408D01*
X15152644Y-13084408D02*
X15133596Y-13074884D01*
X15133596Y-13074884D02*
X15095501Y-13074884D01*
X15095501Y-13074884D02*
X15076453Y-13084408D01*
X15076453Y-13084408D02*
X15066929Y-13093931D01*
X15066929Y-13093931D02*
X15057406Y-13112979D01*
X15057406Y-13112979D02*
X15057406Y-13160598D01*
X15057406Y-13160598D02*
X15066929Y-13179646D01*
X15066929Y-13179646D02*
X15076453Y-13189169D01*
X15076453Y-13189169D02*
X15095501Y-13198693D01*
X15095501Y-13198693D02*
X15133596Y-13198693D01*
X15133596Y-13198693D02*
X15152644Y-13189169D01*
X15152644Y-13189169D02*
X15162167Y-13179646D01*
X15162167Y-13179646D02*
X15171691Y-13160598D01*
X15295501Y-13074884D02*
X15314548Y-13074884D01*
X15314548Y-13074884D02*
X15333596Y-13084408D01*
X15333596Y-13084408D02*
X15343120Y-13093931D01*
X15343120Y-13093931D02*
X15352644Y-13112979D01*
X15352644Y-13112979D02*
X15362167Y-13151074D01*
X15362167Y-13151074D02*
X15362167Y-13198693D01*
X15362167Y-13198693D02*
X15352644Y-13236788D01*
X15352644Y-13236788D02*
X15343120Y-13255836D01*
X15343120Y-13255836D02*
X15333596Y-13265360D01*
X15333596Y-13265360D02*
X15314548Y-13274884D01*
X15314548Y-13274884D02*
X15295501Y-13274884D01*
X15295501Y-13274884D02*
X15276453Y-13265360D01*
X15276453Y-13265360D02*
X15266929Y-13255836D01*
X15266929Y-13255836D02*
X15257406Y-13236788D01*
X15257406Y-13236788D02*
X15247882Y-13198693D01*
X15247882Y-13198693D02*
X15247882Y-13151074D01*
X15247882Y-13151074D02*
X15257406Y-13112979D01*
X15257406Y-13112979D02*
X15266929Y-13093931D01*
X15266929Y-13093931D02*
X15276453Y-13084408D01*
X15276453Y-13084408D02*
X15295501Y-13074884D01*
X15485977Y-13074884D02*
X15505025Y-13074884D01*
X15505025Y-13074884D02*
X15524072Y-13084408D01*
X15524072Y-13084408D02*
X15533596Y-13093931D01*
X15533596Y-13093931D02*
X15543120Y-13112979D01*
X15543120Y-13112979D02*
X15552644Y-13151074D01*
X15552644Y-13151074D02*
X15552644Y-13198693D01*
X15552644Y-13198693D02*
X15543120Y-13236788D01*
X15543120Y-13236788D02*
X15533596Y-13255836D01*
X15533596Y-13255836D02*
X15524072Y-13265360D01*
X15524072Y-13265360D02*
X15505025Y-13274884D01*
X15505025Y-13274884D02*
X15485977Y-13274884D01*
X15485977Y-13274884D02*
X15466929Y-13265360D01*
X15466929Y-13265360D02*
X15457406Y-13255836D01*
X15457406Y-13255836D02*
X15447882Y-13236788D01*
X15447882Y-13236788D02*
X15438358Y-13198693D01*
X15438358Y-13198693D02*
X15438358Y-13151074D01*
X15438358Y-13151074D02*
X15447882Y-13112979D01*
X15447882Y-13112979D02*
X15457406Y-13093931D01*
X15457406Y-13093931D02*
X15466929Y-13084408D01*
X15466929Y-13084408D02*
X15485977Y-13074884D01*
X15628834Y-13074884D02*
X15628834Y-13112979D01*
X15705025Y-13074884D02*
X15705025Y-13112979D01*
X16000263Y-13351074D02*
X15990739Y-13341550D01*
X15990739Y-13341550D02*
X15971691Y-13312979D01*
X15971691Y-13312979D02*
X15962168Y-13293931D01*
X15962168Y-13293931D02*
X15952644Y-13265360D01*
X15952644Y-13265360D02*
X15943120Y-13217741D01*
X15943120Y-13217741D02*
X15943120Y-13179646D01*
X15943120Y-13179646D02*
X15952644Y-13132027D01*
X15952644Y-13132027D02*
X15962168Y-13103455D01*
X15962168Y-13103455D02*
X15971691Y-13084408D01*
X15971691Y-13084408D02*
X15990739Y-13055836D01*
X15990739Y-13055836D02*
X16000263Y-13046312D01*
X16114548Y-13074884D02*
X16133596Y-13074884D01*
X16133596Y-13074884D02*
X16152644Y-13084408D01*
X16152644Y-13084408D02*
X16162168Y-13093931D01*
X16162168Y-13093931D02*
X16171691Y-13112979D01*
X16171691Y-13112979D02*
X16181215Y-13151074D01*
X16181215Y-13151074D02*
X16181215Y-13198693D01*
X16181215Y-13198693D02*
X16171691Y-13236788D01*
X16171691Y-13236788D02*
X16162168Y-13255836D01*
X16162168Y-13255836D02*
X16152644Y-13265360D01*
X16152644Y-13265360D02*
X16133596Y-13274884D01*
X16133596Y-13274884D02*
X16114548Y-13274884D01*
X16114548Y-13274884D02*
X16095501Y-13265360D01*
X16095501Y-13265360D02*
X16085977Y-13255836D01*
X16085977Y-13255836D02*
X16076453Y-13236788D01*
X16076453Y-13236788D02*
X16066929Y-13198693D01*
X16066929Y-13198693D02*
X16066929Y-13151074D01*
X16066929Y-13151074D02*
X16076453Y-13112979D01*
X16076453Y-13112979D02*
X16085977Y-13093931D01*
X16085977Y-13093931D02*
X16095501Y-13084408D01*
X16095501Y-13084408D02*
X16114548Y-13074884D01*
X16419310Y-13274884D02*
X16419310Y-13074884D01*
X16505025Y-13274884D02*
X16505025Y-13170122D01*
X16505025Y-13170122D02*
X16495501Y-13151074D01*
X16495501Y-13151074D02*
X16476453Y-13141550D01*
X16476453Y-13141550D02*
X16447882Y-13141550D01*
X16447882Y-13141550D02*
X16428834Y-13151074D01*
X16428834Y-13151074D02*
X16419310Y-13160598D01*
X16628834Y-13274884D02*
X16609787Y-13265360D01*
X16609787Y-13265360D02*
X16600263Y-13255836D01*
X16600263Y-13255836D02*
X16590739Y-13236788D01*
X16590739Y-13236788D02*
X16590739Y-13179646D01*
X16590739Y-13179646D02*
X16600263Y-13160598D01*
X16600263Y-13160598D02*
X16609787Y-13151074D01*
X16609787Y-13151074D02*
X16628834Y-13141550D01*
X16628834Y-13141550D02*
X16657406Y-13141550D01*
X16657406Y-13141550D02*
X16676453Y-13151074D01*
X16676453Y-13151074D02*
X16685977Y-13160598D01*
X16685977Y-13160598D02*
X16695501Y-13179646D01*
X16695501Y-13179646D02*
X16695501Y-13236788D01*
X16695501Y-13236788D02*
X16685977Y-13255836D01*
X16685977Y-13255836D02*
X16676453Y-13265360D01*
X16676453Y-13265360D02*
X16657406Y-13274884D01*
X16657406Y-13274884D02*
X16628834Y-13274884D01*
X16809787Y-13274884D02*
X16790739Y-13265360D01*
X16790739Y-13265360D02*
X16781215Y-13246312D01*
X16781215Y-13246312D02*
X16781215Y-13074884D01*
X16962168Y-13265360D02*
X16943120Y-13274884D01*
X16943120Y-13274884D02*
X16905025Y-13274884D01*
X16905025Y-13274884D02*
X16885977Y-13265360D01*
X16885977Y-13265360D02*
X16876453Y-13246312D01*
X16876453Y-13246312D02*
X16876453Y-13170122D01*
X16876453Y-13170122D02*
X16885977Y-13151074D01*
X16885977Y-13151074D02*
X16905025Y-13141550D01*
X16905025Y-13141550D02*
X16943120Y-13141550D01*
X16943120Y-13141550D02*
X16962168Y-13151074D01*
X16962168Y-13151074D02*
X16971692Y-13170122D01*
X16971692Y-13170122D02*
X16971692Y-13189169D01*
X16971692Y-13189169D02*
X16876453Y-13208217D01*
X17047882Y-13265360D02*
X17066930Y-13274884D01*
X17066930Y-13274884D02*
X17105025Y-13274884D01*
X17105025Y-13274884D02*
X17124073Y-13265360D01*
X17124073Y-13265360D02*
X17133596Y-13246312D01*
X17133596Y-13246312D02*
X17133596Y-13236788D01*
X17133596Y-13236788D02*
X17124073Y-13217741D01*
X17124073Y-13217741D02*
X17105025Y-13208217D01*
X17105025Y-13208217D02*
X17076453Y-13208217D01*
X17076453Y-13208217D02*
X17057406Y-13198693D01*
X17057406Y-13198693D02*
X17047882Y-13179646D01*
X17047882Y-13179646D02*
X17047882Y-13170122D01*
X17047882Y-13170122D02*
X17057406Y-13151074D01*
X17057406Y-13151074D02*
X17076453Y-13141550D01*
X17076453Y-13141550D02*
X17105025Y-13141550D01*
X17105025Y-13141550D02*
X17124073Y-13151074D01*
X17371692Y-13198693D02*
X17524073Y-13198693D01*
X17447882Y-13274884D02*
X17447882Y-13122503D01*
X17752644Y-13074884D02*
X17876454Y-13074884D01*
X17876454Y-13074884D02*
X17809787Y-13151074D01*
X17809787Y-13151074D02*
X17838358Y-13151074D01*
X17838358Y-13151074D02*
X17857406Y-13160598D01*
X17857406Y-13160598D02*
X17866930Y-13170122D01*
X17866930Y-13170122D02*
X17876454Y-13189169D01*
X17876454Y-13189169D02*
X17876454Y-13236788D01*
X17876454Y-13236788D02*
X17866930Y-13255836D01*
X17866930Y-13255836D02*
X17857406Y-13265360D01*
X17857406Y-13265360D02*
X17838358Y-13274884D01*
X17838358Y-13274884D02*
X17781215Y-13274884D01*
X17781215Y-13274884D02*
X17762168Y-13265360D01*
X17762168Y-13265360D02*
X17752644Y-13255836D01*
X18105025Y-13265360D02*
X18124073Y-13274884D01*
X18124073Y-13274884D02*
X18162168Y-13274884D01*
X18162168Y-13274884D02*
X18181216Y-13265360D01*
X18181216Y-13265360D02*
X18190739Y-13246312D01*
X18190739Y-13246312D02*
X18190739Y-13236788D01*
X18190739Y-13236788D02*
X18181216Y-13217741D01*
X18181216Y-13217741D02*
X18162168Y-13208217D01*
X18162168Y-13208217D02*
X18133596Y-13208217D01*
X18133596Y-13208217D02*
X18114549Y-13198693D01*
X18114549Y-13198693D02*
X18105025Y-13179646D01*
X18105025Y-13179646D02*
X18105025Y-13170122D01*
X18105025Y-13170122D02*
X18114549Y-13151074D01*
X18114549Y-13151074D02*
X18133596Y-13141550D01*
X18133596Y-13141550D02*
X18162168Y-13141550D01*
X18162168Y-13141550D02*
X18181216Y-13151074D01*
X18305025Y-13274884D02*
X18285977Y-13265360D01*
X18285977Y-13265360D02*
X18276454Y-13246312D01*
X18276454Y-13246312D02*
X18276454Y-13074884D01*
X18409787Y-13274884D02*
X18390739Y-13265360D01*
X18390739Y-13265360D02*
X18381216Y-13255836D01*
X18381216Y-13255836D02*
X18371692Y-13236788D01*
X18371692Y-13236788D02*
X18371692Y-13179646D01*
X18371692Y-13179646D02*
X18381216Y-13160598D01*
X18381216Y-13160598D02*
X18390739Y-13151074D01*
X18390739Y-13151074D02*
X18409787Y-13141550D01*
X18409787Y-13141550D02*
X18438358Y-13141550D01*
X18438358Y-13141550D02*
X18457406Y-13151074D01*
X18457406Y-13151074D02*
X18466930Y-13160598D01*
X18466930Y-13160598D02*
X18476454Y-13179646D01*
X18476454Y-13179646D02*
X18476454Y-13236788D01*
X18476454Y-13236788D02*
X18466930Y-13255836D01*
X18466930Y-13255836D02*
X18457406Y-13265360D01*
X18457406Y-13265360D02*
X18438358Y-13274884D01*
X18438358Y-13274884D02*
X18409787Y-13274884D01*
X18533597Y-13141550D02*
X18609787Y-13141550D01*
X18562168Y-13074884D02*
X18562168Y-13246312D01*
X18562168Y-13246312D02*
X18571692Y-13265360D01*
X18571692Y-13265360D02*
X18590739Y-13274884D01*
X18590739Y-13274884D02*
X18609787Y-13274884D01*
X18666930Y-13265360D02*
X18685977Y-13274884D01*
X18685977Y-13274884D02*
X18724073Y-13274884D01*
X18724073Y-13274884D02*
X18743120Y-13265360D01*
X18743120Y-13265360D02*
X18752644Y-13246312D01*
X18752644Y-13246312D02*
X18752644Y-13236788D01*
X18752644Y-13236788D02*
X18743120Y-13217741D01*
X18743120Y-13217741D02*
X18724073Y-13208217D01*
X18724073Y-13208217D02*
X18695501Y-13208217D01*
X18695501Y-13208217D02*
X18676454Y-13198693D01*
X18676454Y-13198693D02*
X18666930Y-13179646D01*
X18666930Y-13179646D02*
X18666930Y-13170122D01*
X18666930Y-13170122D02*
X18676454Y-13151074D01*
X18676454Y-13151074D02*
X18695501Y-13141550D01*
X18695501Y-13141550D02*
X18724073Y-13141550D01*
X18724073Y-13141550D02*
X18743120Y-13151074D01*
X18819311Y-13351074D02*
X18828835Y-13341550D01*
X18828835Y-13341550D02*
X18847882Y-13312979D01*
X18847882Y-13312979D02*
X18857406Y-13293931D01*
X18857406Y-13293931D02*
X18866930Y-13265360D01*
X18866930Y-13265360D02*
X18876454Y-13217741D01*
X18876454Y-13217741D02*
X18876454Y-13179646D01*
X18876454Y-13179646D02*
X18866930Y-13132027D01*
X18866930Y-13132027D02*
X18857406Y-13103455D01*
X18857406Y-13103455D02*
X18847882Y-13084408D01*
X18847882Y-13084408D02*
X18828835Y-13055836D01*
X18828835Y-13055836D02*
X18819311Y-13046312D01*
M02*
