G04 #@! TF.GenerationSoftware,KiCad,Pcbnew,9.0.1*
G04 #@! TF.CreationDate,2025-04-29T17:01:15-07:00*
G04 #@! TF.ProjectId,3bp v2.1,33627020-7632-42e3-912e-6b696361645f,rev?*
G04 #@! TF.SameCoordinates,Original*
G04 #@! TF.FileFunction,Copper,L2,Bot*
G04 #@! TF.FilePolarity,Positive*
%FSLAX46Y46*%
G04 Gerber Fmt 4.6, Leading zero omitted, Abs format (unit mm)*
G04 Created by KiCad (PCBNEW 9.0.1) date 2025-04-29 17:01:15*
%MOMM*%
%LPD*%
G01*
G04 APERTURE LIST*
G04 #@! TA.AperFunction,ComponentPad*
%ADD10C,1.524000*%
G04 #@! TD*
G04 #@! TA.AperFunction,ComponentPad*
%ADD11C,3.048000*%
G04 #@! TD*
G04 #@! TA.AperFunction,ViaPad*
%ADD12C,0.620000*%
G04 #@! TD*
G04 #@! TA.AperFunction,Conductor*
%ADD13C,0.254000*%
G04 #@! TD*
G04 #@! TA.AperFunction,Conductor*
%ADD14C,0.250000*%
G04 #@! TD*
G04 #@! TA.AperFunction,Conductor*
%ADD15C,0.178000*%
G04 #@! TD*
G04 #@! TA.AperFunction,Conductor*
%ADD16C,0.200000*%
G04 #@! TD*
G04 APERTURE END LIST*
D10*
G04 #@! TO.P,CON1,1*
G04 #@! TO.N,B-OUT*
X139949000Y-86969000D03*
G04 #@! TO.P,CON1,2*
G04 #@! TO.N,+5V*
X137917000Y-86969000D03*
G04 #@! TO.P,CON1,3*
G04 #@! TO.N,G-OUT*
X142743000Y-86969000D03*
G04 #@! TO.P,CON1,4*
G04 #@! TO.N,SYNC-75*
X140711000Y-89509000D03*
G04 #@! TO.P,CON1,5*
G04 #@! TO.N,SYNC-OUT*
X138679000Y-89509000D03*
G04 #@! TO.P,CON1,6*
G04 #@! TO.N,SM*
X134615000Y-86969000D03*
G04 #@! TO.P,CON1,7*
G04 #@! TO.N,R-OUT*
X142743000Y-89509000D03*
G04 #@! TO.P,CON1,8*
G04 #@! TO.N,SL*
X136647000Y-89509000D03*
G04 #@! TO.P,CON1,9*
G04 #@! TO.N,SR*
X134615000Y-89509000D03*
D11*
G04 #@! TO.P,CON1,10*
G04 #@! TO.N,GND*
X131440000Y-84175000D03*
X138679000Y-83413000D03*
X145918000Y-84175000D03*
G04 #@! TD*
D12*
G04 #@! TO.N,GND*
X148100000Y-87800000D03*
X150200000Y-82000000D03*
X149200000Y-84000000D03*
X147500000Y-86400000D03*
X125200000Y-83700000D03*
X146500000Y-108200000D03*
X140600000Y-108500000D03*
X149100000Y-98200000D03*
X151100000Y-101200000D03*
X145219772Y-101293652D03*
X147100000Y-101200000D03*
X129000000Y-94100000D03*
X124900000Y-99600000D03*
X129700000Y-96600000D03*
G04 #@! TO.N,SYNC-75*
X142900000Y-84700000D03*
X143800000Y-90800000D03*
G04 #@! TO.N,LPF*
X146947000Y-89360000D03*
G04 #@! TO.N,GND*
X146159000Y-104584000D03*
X133955000Y-112026000D03*
X152154000Y-92290000D03*
X137900000Y-112000000D03*
X150084000Y-104609000D03*
X147849000Y-111975000D03*
X152052000Y-104609000D03*
X145270000Y-117792000D03*
X134666000Y-117754000D03*
X148141000Y-104609000D03*
X131072000Y-117754000D03*
X133117000Y-107899000D03*
X141702000Y-117817000D03*
X148636000Y-117741000D03*
X128379000Y-105371000D03*
X129992000Y-112115000D03*
X140559000Y-96608000D03*
X140343000Y-101333000D03*
X127084000Y-100901000D03*
X138400000Y-118000000D03*
X126900000Y-112000000D03*
X134374000Y-101650000D03*
X127706000Y-117779000D03*
X142000000Y-112000000D03*
X146047000Y-88460000D03*
G04 #@! TO.N,+5V*
X135555000Y-97332000D03*
X150300000Y-117716000D03*
X132126000Y-106540000D03*
X142946000Y-97497000D03*
G04 #@! TO.N,SYNC-OUT*
X149868000Y-115328000D03*
G04 #@! TO.N,LPF*
X151247000Y-91060000D03*
G04 #@! TO.N,B-OUT*
X149147000Y-82960000D03*
X150047000Y-87770502D03*
G04 #@! TO.N,GND*
X145290321Y-111602026D03*
G04 #@! TD*
D13*
G04 #@! TO.N,+5V*
X132100000Y-87350000D02*
X133950000Y-85500000D01*
X132100000Y-90400000D02*
X132100000Y-87350000D01*
X136448000Y-85500000D02*
X137917000Y-86969000D01*
X142946000Y-97497000D02*
X139197000Y-97497000D01*
X139197000Y-97497000D02*
X132100000Y-90400000D01*
X133950000Y-85500000D02*
X136448000Y-85500000D01*
D14*
G04 #@! TO.N,SYNC-75*
X142900000Y-84700000D02*
X144100000Y-85900000D01*
X144100000Y-85900000D02*
X144100000Y-90500000D01*
X144100000Y-90500000D02*
X143800000Y-90800000D01*
D13*
G04 #@! TO.N,+5V*
X142946000Y-110362000D02*
X142946000Y-97497000D01*
X150300000Y-117716000D02*
X142946000Y-110362000D01*
X132126000Y-100761000D02*
X132126000Y-106540000D01*
X135555000Y-97332000D02*
X132126000Y-100761000D01*
D15*
G04 #@! TO.N,SYNC-OUT*
X149868000Y-115328000D02*
X149157000Y-114617000D01*
X149157000Y-100063000D02*
X138679000Y-89585000D01*
X149157000Y-114617000D02*
X149157000Y-100063000D01*
X138679000Y-89585000D02*
X138679000Y-89509000D01*
D16*
G04 #@! TO.N,B-OUT*
X150047000Y-87770502D02*
X150047000Y-83860000D01*
X150047000Y-83860000D02*
X149147000Y-82960000D01*
D14*
G04 #@! TO.N,LPF*
X146947000Y-89360000D02*
X146947000Y-90860000D01*
X146947000Y-90860000D02*
X147147000Y-91060000D01*
X147147000Y-91060000D02*
X151247000Y-91060000D01*
G04 #@! TD*
G04 #@! TA.AperFunction,Conductor*
G04 #@! TO.N,GND*
G36*
X153212621Y-81642502D02*
G01*
X153259114Y-81696158D01*
X153270500Y-81748500D01*
X153270500Y-119773500D01*
X153250498Y-119841621D01*
X153196842Y-119888114D01*
X153144500Y-119899500D01*
X124632500Y-119899500D01*
X124564379Y-119879498D01*
X124517886Y-119825842D01*
X124506500Y-119773500D01*
X124506500Y-106614316D01*
X131561499Y-106614316D01*
X131599969Y-106757886D01*
X131599972Y-106757893D01*
X131674285Y-106886607D01*
X131674293Y-106886617D01*
X131779382Y-106991706D01*
X131779387Y-106991710D01*
X131779389Y-106991712D01*
X131908111Y-107066030D01*
X132051682Y-107104500D01*
X132051684Y-107104500D01*
X132200316Y-107104500D01*
X132200318Y-107104500D01*
X132343889Y-107066030D01*
X132472611Y-106991712D01*
X132577712Y-106886611D01*
X132652030Y-106757889D01*
X132690500Y-106614318D01*
X132690500Y-106465682D01*
X132652030Y-106322111D01*
X132577712Y-106193389D01*
X132577710Y-106193387D01*
X132577706Y-106193382D01*
X132544405Y-106160081D01*
X132510379Y-106097769D01*
X132507500Y-106070986D01*
X132507500Y-100971212D01*
X132527502Y-100903091D01*
X132544405Y-100882117D01*
X135493117Y-97933405D01*
X135555429Y-97899379D01*
X135582212Y-97896500D01*
X135629316Y-97896500D01*
X135629318Y-97896500D01*
X135772889Y-97858030D01*
X135901611Y-97783712D01*
X136006712Y-97678611D01*
X136081030Y-97549889D01*
X136119500Y-97406318D01*
X136119500Y-97257682D01*
X136081030Y-97114111D01*
X136041298Y-97045293D01*
X136006714Y-96985392D01*
X136006706Y-96985382D01*
X135901617Y-96880293D01*
X135901607Y-96880285D01*
X135772893Y-96805972D01*
X135772890Y-96805971D01*
X135772889Y-96805970D01*
X135772887Y-96805969D01*
X135772886Y-96805969D01*
X135734417Y-96795661D01*
X135629318Y-96767500D01*
X135480682Y-96767500D01*
X135403744Y-96788115D01*
X135337113Y-96805969D01*
X135337106Y-96805972D01*
X135208392Y-96880285D01*
X135208382Y-96880293D01*
X135103293Y-96985382D01*
X135103285Y-96985392D01*
X135028972Y-97114106D01*
X135028969Y-97114113D01*
X134990500Y-97257683D01*
X134990500Y-97304786D01*
X134970498Y-97372907D01*
X134953595Y-97393881D01*
X131874030Y-100473445D01*
X131874028Y-100473448D01*
X131820729Y-100526746D01*
X131820721Y-100526756D01*
X131770500Y-100613741D01*
X131744500Y-100710776D01*
X131744500Y-106070986D01*
X131724498Y-106139107D01*
X131707595Y-106160081D01*
X131674293Y-106193382D01*
X131674285Y-106193392D01*
X131599972Y-106322106D01*
X131599969Y-106322113D01*
X131561500Y-106465683D01*
X131561500Y-106614316D01*
X131561499Y-106614316D01*
X124506500Y-106614316D01*
X124506500Y-90450223D01*
X131718499Y-90450223D01*
X131744498Y-90547252D01*
X131744501Y-90547259D01*
X131764624Y-90582112D01*
X131764625Y-90582113D01*
X131794723Y-90634245D01*
X131794727Y-90634251D01*
X138962746Y-97802270D01*
X138962751Y-97802274D01*
X138962753Y-97802276D01*
X139049747Y-97852502D01*
X139146775Y-97878501D01*
X139146777Y-97878501D01*
X139254943Y-97878501D01*
X139254959Y-97878500D01*
X142438500Y-97878500D01*
X142506621Y-97898502D01*
X142553114Y-97952158D01*
X142564500Y-98004500D01*
X142564500Y-110412223D01*
X142564499Y-110412223D01*
X142590500Y-110509258D01*
X142640721Y-110596243D01*
X142640729Y-110596253D01*
X149698595Y-117654117D01*
X149732621Y-117716429D01*
X149735500Y-117743212D01*
X149735500Y-117790316D01*
X149735499Y-117790316D01*
X149773969Y-117933886D01*
X149773972Y-117933893D01*
X149848285Y-118062607D01*
X149848293Y-118062617D01*
X149953382Y-118167706D01*
X149953387Y-118167710D01*
X149953389Y-118167712D01*
X150082111Y-118242030D01*
X150225682Y-118280500D01*
X150225684Y-118280500D01*
X150374316Y-118280500D01*
X150374318Y-118280500D01*
X150517889Y-118242030D01*
X150646611Y-118167712D01*
X150751712Y-118062611D01*
X150826030Y-117933889D01*
X150864500Y-117790318D01*
X150864500Y-117641682D01*
X150826030Y-117498111D01*
X150751712Y-117369389D01*
X150751710Y-117369387D01*
X150751706Y-117369382D01*
X150646617Y-117264293D01*
X150646607Y-117264285D01*
X150517893Y-117189972D01*
X150517890Y-117189971D01*
X150517889Y-117189970D01*
X150517887Y-117189969D01*
X150517886Y-117189969D01*
X150479417Y-117179661D01*
X150374318Y-117151500D01*
X150374316Y-117151500D01*
X150327212Y-117151500D01*
X150259091Y-117131498D01*
X150238117Y-117114595D01*
X143364405Y-110240882D01*
X143330379Y-110178570D01*
X143327500Y-110151787D01*
X143327500Y-97966013D01*
X143347502Y-97897892D01*
X143364401Y-97876921D01*
X143397712Y-97843611D01*
X143472030Y-97714889D01*
X143510500Y-97571318D01*
X143510500Y-97422682D01*
X143472030Y-97279111D01*
X143397712Y-97150389D01*
X143397710Y-97150387D01*
X143397706Y-97150382D01*
X143292617Y-97045293D01*
X143292607Y-97045285D01*
X143163893Y-96970972D01*
X143163890Y-96970971D01*
X143163889Y-96970970D01*
X143163887Y-96970969D01*
X143163886Y-96970969D01*
X143125417Y-96960661D01*
X143020318Y-96932500D01*
X142871682Y-96932500D01*
X142794744Y-96953115D01*
X142728113Y-96970969D01*
X142728106Y-96970972D01*
X142599392Y-97045285D01*
X142599387Y-97045289D01*
X142582735Y-97061941D01*
X142566081Y-97078595D01*
X142503772Y-97112620D01*
X142476987Y-97115500D01*
X139407213Y-97115500D01*
X139339092Y-97095498D01*
X139318118Y-97078595D01*
X132518405Y-90278882D01*
X132484379Y-90216570D01*
X132481500Y-90189787D01*
X132481500Y-89408880D01*
X133598500Y-89408880D01*
X133598500Y-89609119D01*
X133617892Y-89706607D01*
X133637564Y-89805502D01*
X133714190Y-89990493D01*
X133718009Y-89996208D01*
X133825434Y-90156982D01*
X133825439Y-90156988D01*
X133967011Y-90298560D01*
X133967017Y-90298565D01*
X133967019Y-90298567D01*
X134133507Y-90409810D01*
X134318498Y-90486436D01*
X134514884Y-90525500D01*
X134715116Y-90525500D01*
X134911502Y-90486436D01*
X135096493Y-90409810D01*
X135262981Y-90298567D01*
X135404567Y-90156981D01*
X135515810Y-89990493D01*
X135515811Y-89990488D01*
X135518729Y-89985032D01*
X135520571Y-89986017D01*
X135559131Y-89938160D01*
X135626492Y-89915734D01*
X135695285Y-89933286D01*
X135743668Y-89985244D01*
X135745331Y-89988886D01*
X135746189Y-89990492D01*
X135857434Y-90156982D01*
X135857439Y-90156988D01*
X135999011Y-90298560D01*
X135999017Y-90298565D01*
X135999019Y-90298567D01*
X136165507Y-90409810D01*
X136350498Y-90486436D01*
X136546884Y-90525500D01*
X136747116Y-90525500D01*
X136943502Y-90486436D01*
X137128493Y-90409810D01*
X137294981Y-90298567D01*
X137436567Y-90156981D01*
X137547810Y-89990493D01*
X137547811Y-89990488D01*
X137550729Y-89985032D01*
X137552571Y-89986017D01*
X137591131Y-89938160D01*
X137658492Y-89915734D01*
X137727285Y-89933286D01*
X137775668Y-89985244D01*
X137777331Y-89988886D01*
X137778189Y-89990492D01*
X137889434Y-90156982D01*
X137889439Y-90156988D01*
X138031011Y-90298560D01*
X138031017Y-90298565D01*
X138031019Y-90298567D01*
X138197507Y-90409810D01*
X138382498Y-90486436D01*
X138578884Y-90525500D01*
X138779116Y-90525500D01*
X138975502Y-90486436D01*
X138981972Y-90483756D01*
X139052561Y-90476166D01*
X139116049Y-90507944D01*
X139119286Y-90511069D01*
X148776595Y-100168377D01*
X148810621Y-100230689D01*
X148813500Y-100257472D01*
X148813500Y-114571778D01*
X148813500Y-114662222D01*
X148829106Y-114720464D01*
X148836909Y-114749587D01*
X148844942Y-114763500D01*
X148882131Y-114827914D01*
X149266596Y-115212379D01*
X149300620Y-115274690D01*
X149303500Y-115301473D01*
X149303500Y-115402316D01*
X149303499Y-115402316D01*
X149341969Y-115545886D01*
X149341972Y-115545893D01*
X149416285Y-115674607D01*
X149416293Y-115674617D01*
X149521382Y-115779706D01*
X149521387Y-115779710D01*
X149521389Y-115779712D01*
X149650111Y-115854030D01*
X149793682Y-115892500D01*
X149793684Y-115892500D01*
X149942316Y-115892500D01*
X149942318Y-115892500D01*
X150085889Y-115854030D01*
X150214611Y-115779712D01*
X150319712Y-115674611D01*
X150394030Y-115545889D01*
X150432500Y-115402318D01*
X150432500Y-115253682D01*
X150394030Y-115110111D01*
X150319712Y-114981389D01*
X150319710Y-114981387D01*
X150319706Y-114981382D01*
X150214617Y-114876293D01*
X150214607Y-114876285D01*
X150085893Y-114801972D01*
X150085890Y-114801971D01*
X150085889Y-114801970D01*
X150085887Y-114801969D01*
X150085886Y-114801969D01*
X150047417Y-114791661D01*
X149942318Y-114763500D01*
X149841473Y-114763500D01*
X149773352Y-114743498D01*
X149752378Y-114726595D01*
X149537405Y-114511622D01*
X149503379Y-114449310D01*
X149500500Y-114422527D01*
X149500500Y-100017778D01*
X149500500Y-100017777D01*
X149477091Y-99930414D01*
X149431868Y-99852086D01*
X149367914Y-99788132D01*
X140267860Y-90688077D01*
X140233834Y-90625765D01*
X140238899Y-90554950D01*
X140281446Y-90498114D01*
X140347966Y-90473303D01*
X140405176Y-90482574D01*
X140414498Y-90486436D01*
X140610884Y-90525500D01*
X140811116Y-90525500D01*
X141007502Y-90486436D01*
X141192493Y-90409810D01*
X141358981Y-90298567D01*
X141500567Y-90156981D01*
X141611810Y-89990493D01*
X141611811Y-89990488D01*
X141614729Y-89985032D01*
X141616571Y-89986017D01*
X141655131Y-89938160D01*
X141722492Y-89915734D01*
X141791285Y-89933286D01*
X141839668Y-89985244D01*
X141841331Y-89988886D01*
X141842189Y-89990492D01*
X141953434Y-90156982D01*
X141953439Y-90156988D01*
X142095011Y-90298560D01*
X142095017Y-90298565D01*
X142095019Y-90298567D01*
X142261507Y-90409810D01*
X142446498Y-90486436D01*
X142642884Y-90525500D01*
X142843116Y-90525500D01*
X143039502Y-90486436D01*
X143039508Y-90486433D01*
X143039510Y-90486433D01*
X143096024Y-90463024D01*
X143166614Y-90455434D01*
X143230101Y-90487213D01*
X143266329Y-90548271D01*
X143265950Y-90612041D01*
X143238796Y-90713382D01*
X143235500Y-90725683D01*
X143235500Y-90874316D01*
X143235499Y-90874316D01*
X143273969Y-91017886D01*
X143273972Y-91017893D01*
X143348285Y-91146607D01*
X143348293Y-91146617D01*
X143453382Y-91251706D01*
X143453387Y-91251710D01*
X143453389Y-91251712D01*
X143453390Y-91251713D01*
X143453392Y-91251714D01*
X143543869Y-91303950D01*
X143582111Y-91326030D01*
X143725682Y-91364500D01*
X143725684Y-91364500D01*
X143874316Y-91364500D01*
X143874318Y-91364500D01*
X144017889Y-91326030D01*
X144146611Y-91251712D01*
X144251712Y-91146611D01*
X144326030Y-91017889D01*
X144364500Y-90874318D01*
X144364500Y-90824385D01*
X144377216Y-90769224D01*
X144386464Y-90750230D01*
X144403676Y-90733019D01*
X144453638Y-90646482D01*
X144470886Y-90582111D01*
X144479501Y-90549962D01*
X144479501Y-90450038D01*
X144479501Y-90442321D01*
X144479500Y-90442303D01*
X144479500Y-89434316D01*
X146382499Y-89434316D01*
X146420969Y-89577886D01*
X146420972Y-89577893D01*
X146495285Y-89706607D01*
X146495287Y-89706610D01*
X146495288Y-89706611D01*
X146530595Y-89741918D01*
X146564620Y-89804228D01*
X146567500Y-89831013D01*
X146567500Y-90810034D01*
X146567499Y-90810038D01*
X146567499Y-90909962D01*
X146577285Y-90946481D01*
X146580264Y-90957600D01*
X146580265Y-90957607D01*
X146593362Y-91006483D01*
X146643321Y-91093015D01*
X146643329Y-91093025D01*
X146721156Y-91170852D01*
X146721170Y-91170864D01*
X146838913Y-91288607D01*
X146838934Y-91288630D01*
X146913974Y-91363670D01*
X146913979Y-91363674D01*
X146913981Y-91363676D01*
X146913982Y-91363677D01*
X146913984Y-91363678D01*
X147000514Y-91413636D01*
X147000518Y-91413638D01*
X147020915Y-91419103D01*
X147097038Y-91439501D01*
X147196962Y-91439501D01*
X147196966Y-91439500D01*
X150775987Y-91439500D01*
X150844108Y-91459502D01*
X150865078Y-91476401D01*
X150900389Y-91511712D01*
X151029111Y-91586030D01*
X151172682Y-91624500D01*
X151172684Y-91624500D01*
X151321316Y-91624500D01*
X151321318Y-91624500D01*
X151464889Y-91586030D01*
X151593611Y-91511712D01*
X151698712Y-91406611D01*
X151773030Y-91277889D01*
X151811500Y-91134318D01*
X151811500Y-90985682D01*
X151773030Y-90842111D01*
X151732664Y-90772195D01*
X151698714Y-90713392D01*
X151698706Y-90713382D01*
X151593617Y-90608293D01*
X151593607Y-90608285D01*
X151464893Y-90533972D01*
X151464890Y-90533971D01*
X151464889Y-90533970D01*
X151464887Y-90533969D01*
X151464886Y-90533969D01*
X151426417Y-90523661D01*
X151321318Y-90495500D01*
X151172682Y-90495500D01*
X151095744Y-90516115D01*
X151029113Y-90533969D01*
X151029106Y-90533972D01*
X150900392Y-90608285D01*
X150900387Y-90608289D01*
X150882912Y-90625765D01*
X150865081Y-90643595D01*
X150802772Y-90677620D01*
X150775987Y-90680500D01*
X147452500Y-90680500D01*
X147384379Y-90660498D01*
X147337886Y-90606842D01*
X147326500Y-90554500D01*
X147326500Y-89831013D01*
X147346502Y-89762892D01*
X147363401Y-89741921D01*
X147398712Y-89706611D01*
X147473030Y-89577889D01*
X147511500Y-89434318D01*
X147511500Y-89285682D01*
X147473030Y-89142111D01*
X147450025Y-89102266D01*
X147398714Y-89013392D01*
X147398706Y-89013382D01*
X147293617Y-88908293D01*
X147293607Y-88908285D01*
X147164893Y-88833972D01*
X147164890Y-88833971D01*
X147164889Y-88833970D01*
X147164887Y-88833969D01*
X147164886Y-88833969D01*
X147126417Y-88823661D01*
X147021318Y-88795500D01*
X146872682Y-88795500D01*
X146807812Y-88812882D01*
X146729113Y-88833969D01*
X146729106Y-88833972D01*
X146600392Y-88908285D01*
X146600382Y-88908293D01*
X146495293Y-89013382D01*
X146495285Y-89013392D01*
X146420972Y-89142106D01*
X146420969Y-89142113D01*
X146382500Y-89285683D01*
X146382500Y-89434316D01*
X146382499Y-89434316D01*
X144479500Y-89434316D01*
X144479500Y-85850039D01*
X144479500Y-85850038D01*
X144453638Y-85753518D01*
X144453636Y-85753515D01*
X144453636Y-85753513D01*
X144403678Y-85666984D01*
X144403670Y-85666974D01*
X144328630Y-85591934D01*
X144328607Y-85591913D01*
X143501405Y-84764711D01*
X143467379Y-84702399D01*
X143464500Y-84675616D01*
X143464500Y-84625683D01*
X143464500Y-84625682D01*
X143426030Y-84482111D01*
X143351712Y-84353389D01*
X143351710Y-84353387D01*
X143351706Y-84353382D01*
X143246617Y-84248293D01*
X143246607Y-84248285D01*
X143117893Y-84173972D01*
X143117890Y-84173971D01*
X143117889Y-84173970D01*
X143117887Y-84173969D01*
X143117886Y-84173969D01*
X143079417Y-84163661D01*
X142974318Y-84135500D01*
X142825682Y-84135500D01*
X142748744Y-84156115D01*
X142682113Y-84173969D01*
X142682106Y-84173972D01*
X142553392Y-84248285D01*
X142553382Y-84248293D01*
X142448293Y-84353382D01*
X142448285Y-84353392D01*
X142373972Y-84482106D01*
X142373969Y-84482113D01*
X142335500Y-84625683D01*
X142335500Y-84774316D01*
X142335499Y-84774316D01*
X142373969Y-84917886D01*
X142373972Y-84917893D01*
X142448285Y-85046607D01*
X142448293Y-85046617D01*
X142553382Y-85151706D01*
X142553387Y-85151710D01*
X142553389Y-85151712D01*
X142682111Y-85226030D01*
X142825682Y-85264500D01*
X142875616Y-85264500D01*
X142943737Y-85284502D01*
X142964711Y-85301405D01*
X143683595Y-86020289D01*
X143698539Y-86047657D01*
X143715396Y-86073886D01*
X143716301Y-86080184D01*
X143717621Y-86082601D01*
X143720500Y-86109384D01*
X143720500Y-86204761D01*
X143700498Y-86272882D01*
X143646842Y-86319375D01*
X143576568Y-86329479D01*
X143511988Y-86299985D01*
X143505405Y-86293856D01*
X143390988Y-86179439D01*
X143390982Y-86179434D01*
X143290456Y-86112265D01*
X143224493Y-86068190D01*
X143061713Y-86000764D01*
X143039505Y-85991565D01*
X143039502Y-85991564D01*
X142843119Y-85952500D01*
X142843116Y-85952500D01*
X142642884Y-85952500D01*
X142642880Y-85952500D01*
X142446497Y-85991564D01*
X142446494Y-85991565D01*
X142261507Y-86068190D01*
X142095017Y-86179434D01*
X142095011Y-86179439D01*
X141953439Y-86321011D01*
X141953434Y-86321017D01*
X141842190Y-86487507D01*
X141765565Y-86672494D01*
X141765564Y-86672497D01*
X141726500Y-86868880D01*
X141726500Y-87069119D01*
X141735777Y-87115756D01*
X141765564Y-87265502D01*
X141842190Y-87450493D01*
X141952232Y-87615183D01*
X141953434Y-87616982D01*
X141953439Y-87616988D01*
X142095011Y-87758560D01*
X142095017Y-87758565D01*
X142095019Y-87758567D01*
X142261507Y-87869810D01*
X142446498Y-87946436D01*
X142642884Y-87985500D01*
X142843116Y-87985500D01*
X143039502Y-87946436D01*
X143224493Y-87869810D01*
X143390981Y-87758567D01*
X143425298Y-87724250D01*
X143505405Y-87644144D01*
X143567717Y-87610118D01*
X143638532Y-87615183D01*
X143695368Y-87657730D01*
X143720179Y-87724250D01*
X143720500Y-87733239D01*
X143720500Y-88744761D01*
X143700498Y-88812882D01*
X143646842Y-88859375D01*
X143576568Y-88869479D01*
X143511988Y-88839985D01*
X143505405Y-88833856D01*
X143390988Y-88719439D01*
X143390982Y-88719434D01*
X143390981Y-88719433D01*
X143224493Y-88608190D01*
X143107839Y-88559870D01*
X143039505Y-88531565D01*
X143039502Y-88531564D01*
X142843119Y-88492500D01*
X142843116Y-88492500D01*
X142642884Y-88492500D01*
X142642880Y-88492500D01*
X142446497Y-88531564D01*
X142446494Y-88531565D01*
X142261507Y-88608190D01*
X142095017Y-88719434D01*
X142095011Y-88719439D01*
X141953439Y-88861011D01*
X141953434Y-88861017D01*
X141842189Y-89027507D01*
X141839271Y-89032968D01*
X141837430Y-89031984D01*
X141798856Y-89079848D01*
X141731492Y-89102266D01*
X141662701Y-89084705D01*
X141614325Y-89032741D01*
X141612666Y-89029110D01*
X141611810Y-89027507D01*
X141532154Y-88908293D01*
X141500567Y-88861019D01*
X141500565Y-88861017D01*
X141500560Y-88861011D01*
X141358988Y-88719439D01*
X141358982Y-88719434D01*
X141358981Y-88719433D01*
X141192493Y-88608190D01*
X141075839Y-88559870D01*
X141007505Y-88531565D01*
X141007502Y-88531564D01*
X140811119Y-88492500D01*
X140811116Y-88492500D01*
X140610884Y-88492500D01*
X140610880Y-88492500D01*
X140414497Y-88531564D01*
X140414494Y-88531565D01*
X140229507Y-88608190D01*
X140063017Y-88719434D01*
X140063011Y-88719439D01*
X139921439Y-88861011D01*
X139921434Y-88861017D01*
X139810189Y-89027507D01*
X139807271Y-89032968D01*
X139805430Y-89031984D01*
X139766856Y-89079848D01*
X139699492Y-89102266D01*
X139630701Y-89084705D01*
X139582325Y-89032741D01*
X139580666Y-89029110D01*
X139579810Y-89027507D01*
X139500154Y-88908293D01*
X139468567Y-88861019D01*
X139468565Y-88861017D01*
X139468560Y-88861011D01*
X139326988Y-88719439D01*
X139326982Y-88719434D01*
X139326981Y-88719433D01*
X139160493Y-88608190D01*
X139043839Y-88559870D01*
X138975505Y-88531565D01*
X138975502Y-88531564D01*
X138779119Y-88492500D01*
X138779116Y-88492500D01*
X138578884Y-88492500D01*
X138578880Y-88492500D01*
X138382497Y-88531564D01*
X138382494Y-88531565D01*
X138197507Y-88608190D01*
X138031017Y-88719434D01*
X138031011Y-88719439D01*
X137889439Y-88861011D01*
X137889434Y-88861017D01*
X137778189Y-89027507D01*
X137775271Y-89032968D01*
X137773430Y-89031984D01*
X137734856Y-89079848D01*
X137667492Y-89102266D01*
X137598701Y-89084705D01*
X137550325Y-89032741D01*
X137548666Y-89029110D01*
X137547810Y-89027507D01*
X137468154Y-88908293D01*
X137436567Y-88861019D01*
X137436565Y-88861017D01*
X137436560Y-88861011D01*
X137294988Y-88719439D01*
X137294982Y-88719434D01*
X137294981Y-88719433D01*
X137128493Y-88608190D01*
X137011839Y-88559870D01*
X136943505Y-88531565D01*
X136943502Y-88531564D01*
X136747119Y-88492500D01*
X136747116Y-88492500D01*
X136546884Y-88492500D01*
X136546880Y-88492500D01*
X136350497Y-88531564D01*
X136350494Y-88531565D01*
X136165507Y-88608190D01*
X135999017Y-88719434D01*
X135999011Y-88719439D01*
X135857439Y-88861011D01*
X135857434Y-88861017D01*
X135746189Y-89027507D01*
X135743271Y-89032968D01*
X135741430Y-89031984D01*
X135702856Y-89079848D01*
X135635492Y-89102266D01*
X135566701Y-89084705D01*
X135518325Y-89032741D01*
X135516666Y-89029110D01*
X135515810Y-89027507D01*
X135436154Y-88908293D01*
X135404567Y-88861019D01*
X135404565Y-88861017D01*
X135404560Y-88861011D01*
X135262988Y-88719439D01*
X135262982Y-88719434D01*
X135262981Y-88719433D01*
X135096493Y-88608190D01*
X134979839Y-88559870D01*
X134911505Y-88531565D01*
X134911502Y-88531564D01*
X134715119Y-88492500D01*
X134715116Y-88492500D01*
X134514884Y-88492500D01*
X134514880Y-88492500D01*
X134318497Y-88531564D01*
X134318494Y-88531565D01*
X134133507Y-88608190D01*
X133967017Y-88719434D01*
X133967011Y-88719439D01*
X133825439Y-88861011D01*
X133825434Y-88861017D01*
X133714190Y-89027507D01*
X133637565Y-89212494D01*
X133637564Y-89212497D01*
X133598500Y-89408880D01*
X132481500Y-89408880D01*
X132481500Y-87560213D01*
X132501502Y-87492092D01*
X132518399Y-87471123D01*
X133423450Y-86566072D01*
X133485759Y-86532050D01*
X133556574Y-86537114D01*
X133613410Y-86579661D01*
X133638221Y-86646181D01*
X133636121Y-86679752D01*
X133598500Y-86868880D01*
X133598500Y-87069119D01*
X133607777Y-87115756D01*
X133637564Y-87265502D01*
X133714190Y-87450493D01*
X133824232Y-87615183D01*
X133825434Y-87616982D01*
X133825439Y-87616988D01*
X133967011Y-87758560D01*
X133967017Y-87758565D01*
X133967019Y-87758567D01*
X134133507Y-87869810D01*
X134318498Y-87946436D01*
X134514884Y-87985500D01*
X134715116Y-87985500D01*
X134911502Y-87946436D01*
X135096493Y-87869810D01*
X135262981Y-87758567D01*
X135404567Y-87616981D01*
X135515810Y-87450493D01*
X135592436Y-87265502D01*
X135631500Y-87069116D01*
X135631500Y-86868884D01*
X135592436Y-86672498D01*
X135515810Y-86487507D01*
X135404567Y-86321019D01*
X135404565Y-86321017D01*
X135404560Y-86321011D01*
X135262988Y-86179439D01*
X135262982Y-86179434D01*
X135162456Y-86112265D01*
X135116928Y-86057788D01*
X135108080Y-85987345D01*
X135138721Y-85923301D01*
X135199123Y-85885990D01*
X135232458Y-85881500D01*
X136237787Y-85881500D01*
X136305908Y-85901502D01*
X136326882Y-85918405D01*
X136921450Y-86512973D01*
X136955476Y-86575285D01*
X136950411Y-86646100D01*
X136948764Y-86650285D01*
X136939567Y-86672487D01*
X136939564Y-86672497D01*
X136900500Y-86868880D01*
X136900500Y-87069119D01*
X136909777Y-87115756D01*
X136939564Y-87265502D01*
X137016190Y-87450493D01*
X137126232Y-87615183D01*
X137127434Y-87616982D01*
X137127439Y-87616988D01*
X137269011Y-87758560D01*
X137269017Y-87758565D01*
X137269019Y-87758567D01*
X137435507Y-87869810D01*
X137620498Y-87946436D01*
X137816884Y-87985500D01*
X138017116Y-87985500D01*
X138213502Y-87946436D01*
X138398493Y-87869810D01*
X138564981Y-87758567D01*
X138706567Y-87616981D01*
X138817810Y-87450493D01*
X138817811Y-87450488D01*
X138820729Y-87445032D01*
X138822571Y-87446017D01*
X138861131Y-87398160D01*
X138928492Y-87375734D01*
X138997285Y-87393286D01*
X139045668Y-87445244D01*
X139047331Y-87448886D01*
X139048189Y-87450492D01*
X139048190Y-87450493D01*
X139154847Y-87610118D01*
X139159434Y-87616982D01*
X139159439Y-87616988D01*
X139301011Y-87758560D01*
X139301017Y-87758565D01*
X139301019Y-87758567D01*
X139467507Y-87869810D01*
X139652498Y-87946436D01*
X139848884Y-87985500D01*
X140049116Y-87985500D01*
X140245502Y-87946436D01*
X140430493Y-87869810D01*
X140596981Y-87758567D01*
X140738567Y-87616981D01*
X140849810Y-87450493D01*
X140926436Y-87265502D01*
X140965500Y-87069116D01*
X140965500Y-86868884D01*
X140926436Y-86672498D01*
X140849810Y-86487507D01*
X140738567Y-86321019D01*
X140738565Y-86321017D01*
X140738560Y-86321011D01*
X140596988Y-86179439D01*
X140596982Y-86179434D01*
X140496456Y-86112265D01*
X140430493Y-86068190D01*
X140267713Y-86000764D01*
X140245505Y-85991565D01*
X140245502Y-85991564D01*
X140049119Y-85952500D01*
X140049116Y-85952500D01*
X139848884Y-85952500D01*
X139848880Y-85952500D01*
X139652497Y-85991564D01*
X139652494Y-85991565D01*
X139467507Y-86068190D01*
X139301017Y-86179434D01*
X139301011Y-86179439D01*
X139159439Y-86321011D01*
X139159434Y-86321017D01*
X139048189Y-86487507D01*
X139045271Y-86492968D01*
X139043430Y-86491984D01*
X139004856Y-86539848D01*
X138937492Y-86562266D01*
X138868701Y-86544705D01*
X138820325Y-86492741D01*
X138818666Y-86489110D01*
X138817810Y-86487507D01*
X138706567Y-86321019D01*
X138706565Y-86321017D01*
X138706560Y-86321011D01*
X138564988Y-86179439D01*
X138564982Y-86179434D01*
X138464456Y-86112265D01*
X138398493Y-86068190D01*
X138235713Y-86000764D01*
X138213505Y-85991565D01*
X138213502Y-85991564D01*
X138017119Y-85952500D01*
X138017116Y-85952500D01*
X137816884Y-85952500D01*
X137816880Y-85952500D01*
X137620497Y-85991564D01*
X137620487Y-85991567D01*
X137598285Y-86000764D01*
X137527695Y-86008353D01*
X137464208Y-85976573D01*
X137461000Y-85973477D01*
X136682247Y-85194724D01*
X136682245Y-85194723D01*
X136682243Y-85194721D01*
X136607746Y-85151711D01*
X136595259Y-85144501D01*
X136595252Y-85144498D01*
X136550221Y-85132432D01*
X136498225Y-85118500D01*
X133899775Y-85118500D01*
X133858767Y-85129488D01*
X133802747Y-85144498D01*
X133802740Y-85144501D01*
X133790254Y-85151711D01*
X133715756Y-85194721D01*
X133715746Y-85194729D01*
X132264377Y-86646100D01*
X131865753Y-87044724D01*
X131841361Y-87069116D01*
X131794725Y-87115751D01*
X131794721Y-87115756D01*
X131744500Y-87202741D01*
X131744499Y-87202746D01*
X131727684Y-87265502D01*
X131718500Y-87299776D01*
X131718500Y-90450223D01*
X131718499Y-90450223D01*
X124506500Y-90450223D01*
X124506500Y-83034316D01*
X148582499Y-83034316D01*
X148620969Y-83177886D01*
X148620972Y-83177893D01*
X148695285Y-83306607D01*
X148695293Y-83306617D01*
X148800382Y-83411706D01*
X148800387Y-83411710D01*
X148800389Y-83411712D01*
X148929111Y-83486030D01*
X149072682Y-83524500D01*
X149157971Y-83524500D01*
X149226092Y-83544502D01*
X149247066Y-83561405D01*
X149655595Y-83969934D01*
X149689621Y-84032246D01*
X149692500Y-84059029D01*
X149692500Y-87274488D01*
X149672498Y-87342609D01*
X149655595Y-87363583D01*
X149595293Y-87423884D01*
X149595285Y-87423894D01*
X149520972Y-87552608D01*
X149520969Y-87552615D01*
X149482500Y-87696185D01*
X149482500Y-87844818D01*
X149482499Y-87844818D01*
X149520969Y-87988388D01*
X149520972Y-87988395D01*
X149595285Y-88117109D01*
X149595293Y-88117119D01*
X149700382Y-88222208D01*
X149700387Y-88222212D01*
X149700389Y-88222214D01*
X149829111Y-88296532D01*
X149972682Y-88335002D01*
X149972684Y-88335002D01*
X150121316Y-88335002D01*
X150121318Y-88335002D01*
X150264889Y-88296532D01*
X150393611Y-88222214D01*
X150498712Y-88117113D01*
X150573030Y-87988391D01*
X150611500Y-87844820D01*
X150611500Y-87696184D01*
X150573030Y-87552613D01*
X150498712Y-87423891D01*
X150498710Y-87423889D01*
X150498706Y-87423884D01*
X150438405Y-87363583D01*
X150404379Y-87301271D01*
X150401500Y-87274488D01*
X150401500Y-83813329D01*
X150401499Y-83813325D01*
X150377340Y-83723166D01*
X150330673Y-83642335D01*
X150330669Y-83642330D01*
X150264668Y-83576329D01*
X149748405Y-83060066D01*
X149714379Y-82997754D01*
X149711500Y-82970971D01*
X149711500Y-82885683D01*
X149711500Y-82885682D01*
X149673030Y-82742111D01*
X149598712Y-82613389D01*
X149598710Y-82613387D01*
X149598706Y-82613382D01*
X149493617Y-82508293D01*
X149493607Y-82508285D01*
X149364893Y-82433972D01*
X149364890Y-82433971D01*
X149364889Y-82433970D01*
X149364887Y-82433969D01*
X149364886Y-82433969D01*
X149326417Y-82423661D01*
X149221318Y-82395500D01*
X149072682Y-82395500D01*
X148995744Y-82416115D01*
X148929113Y-82433969D01*
X148929106Y-82433972D01*
X148800392Y-82508285D01*
X148800382Y-82508293D01*
X148695293Y-82613382D01*
X148695285Y-82613392D01*
X148620972Y-82742106D01*
X148620969Y-82742113D01*
X148582500Y-82885683D01*
X148582500Y-83034316D01*
X148582499Y-83034316D01*
X124506500Y-83034316D01*
X124506500Y-81748500D01*
X124526502Y-81680379D01*
X124580158Y-81633886D01*
X124632500Y-81622500D01*
X153144500Y-81622500D01*
X153212621Y-81642502D01*
G37*
G04 #@! TD.AperFunction*
G04 #@! TD*
M02*
