G04 #@! TF.GenerationSoftware,KiCad,Pcbnew,9.0.1*
G04 #@! TF.CreationDate,2025-04-29T17:01:15-07:00*
G04 #@! TF.ProjectId,3bp v2.1,33627020-7632-42e3-912e-6b696361645f,rev?*
G04 #@! TF.SameCoordinates,Original*
G04 #@! TF.FileFunction,Paste,Top*
G04 #@! TF.FilePolarity,Positive*
%FSLAX46Y46*%
G04 Gerber Fmt 4.6, Leading zero omitted, Abs format (unit mm)*
G04 Created by KiCad (PCBNEW 9.0.1) date 2025-04-29 17:01:15*
%MOMM*%
%LPD*%
G01*
G04 APERTURE LIST*
G04 Aperture macros list*
%AMRoundRect*
0 Rectangle with rounded corners*
0 $1 Rounding radius*
0 $2 $3 $4 $5 $6 $7 $8 $9 X,Y pos of 4 corners*
0 Add a 4 corners polygon primitive as box body*
4,1,4,$2,$3,$4,$5,$6,$7,$8,$9,$2,$3,0*
0 Add four circle primitives for the rounded corners*
1,1,$1+$1,$2,$3*
1,1,$1+$1,$4,$5*
1,1,$1+$1,$6,$7*
1,1,$1+$1,$8,$9*
0 Add four rect primitives between the rounded corners*
20,1,$1+$1,$2,$3,$4,$5,0*
20,1,$1+$1,$4,$5,$6,$7,0*
20,1,$1+$1,$6,$7,$8,$9,0*
20,1,$1+$1,$8,$9,$2,$3,0*%
G04 Aperture macros list end*
%ADD10RoundRect,0.200000X0.200000X0.275000X-0.200000X0.275000X-0.200000X-0.275000X0.200000X-0.275000X0*%
%ADD11RoundRect,0.200000X-0.200000X-0.275000X0.200000X-0.275000X0.200000X0.275000X-0.200000X0.275000X0*%
%ADD12RoundRect,0.250000X0.945000X-0.420000X0.945000X0.420000X-0.945000X0.420000X-0.945000X-0.420000X0*%
%ADD13RoundRect,0.250000X-0.420000X-0.945000X0.420000X-0.945000X0.420000X0.945000X-0.420000X0.945000X0*%
%ADD14RoundRect,0.250000X0.420000X0.945000X-0.420000X0.945000X-0.420000X-0.945000X0.420000X-0.945000X0*%
%ADD15RoundRect,0.225000X-0.250000X0.225000X-0.250000X-0.225000X0.250000X-0.225000X0.250000X0.225000X0*%
%ADD16RoundRect,0.250000X-0.325000X-0.650000X0.325000X-0.650000X0.325000X0.650000X-0.325000X0.650000X0*%
%ADD17RoundRect,0.225000X0.225000X0.250000X-0.225000X0.250000X-0.225000X-0.250000X0.225000X-0.250000X0*%
%ADD18RoundRect,0.225000X0.250000X-0.225000X0.250000X0.225000X-0.250000X0.225000X-0.250000X-0.225000X0*%
%ADD19RoundRect,0.200000X0.275000X-0.200000X0.275000X0.200000X-0.275000X0.200000X-0.275000X-0.200000X0*%
%ADD20RoundRect,0.200000X-0.275000X0.200000X-0.275000X-0.200000X0.275000X-0.200000X0.275000X0.200000X0*%
%ADD21RoundRect,0.250000X-0.650000X0.325000X-0.650000X-0.325000X0.650000X-0.325000X0.650000X0.325000X0*%
%ADD22RoundRect,0.250000X-0.475000X0.250000X-0.475000X-0.250000X0.475000X-0.250000X0.475000X0.250000X0*%
%ADD23R,1.270000X0.635000*%
%ADD24R,1.254000X0.540000*%
%ADD25R,2.032000X1.270000*%
%ADD26C,1.524000*%
%ADD27C,3.048000*%
%ADD28R,0.800000X1.270000*%
%ADD29R,1.270000X0.720000*%
%ADD30R,1.270000X2.032000*%
%ADD31R,0.300000X2.000000*%
G04 APERTURE END LIST*
D10*
G04 #@! TO.C,R42*
X126925000Y-89800000D03*
X125275000Y-89800000D03*
G04 #@! TD*
G04 #@! TO.C,R41*
X126925000Y-91300000D03*
X125275000Y-91300000D03*
G04 #@! TD*
G04 #@! TO.C,R39*
X150125000Y-84860000D03*
X148475000Y-84860000D03*
G04 #@! TD*
G04 #@! TO.C,R40*
X150125000Y-82960000D03*
X148475000Y-82960000D03*
G04 #@! TD*
D11*
G04 #@! TO.C,R10*
X145275000Y-88300000D03*
X146925000Y-88300000D03*
G04 #@! TD*
D10*
G04 #@! TO.C,R38*
X150125000Y-86700000D03*
X148475000Y-86700000D03*
G04 #@! TD*
D11*
G04 #@! TO.C,R11*
X145075000Y-90300000D03*
X146725000Y-90300000D03*
G04 #@! TD*
D12*
G04 #@! TO.C,C23*
X127400000Y-87867000D03*
X127400000Y-84787000D03*
G04 #@! TD*
G04 #@! TO.C,C22*
X130900000Y-92940000D03*
X130900000Y-89860000D03*
G04 #@! TD*
D13*
G04 #@! TO.C,C21*
X137140000Y-92582000D03*
X134060000Y-92582000D03*
G04 #@! TD*
D14*
G04 #@! TO.C,C8*
X142740000Y-92600000D03*
X139660000Y-92600000D03*
G04 #@! TD*
D15*
G04 #@! TO.C,C6*
X146500000Y-91825000D03*
X146500000Y-93375000D03*
G04 #@! TD*
D16*
G04 #@! TO.C,C7*
X142725000Y-95800000D03*
X145675000Y-95800000D03*
G04 #@! TD*
D17*
G04 #@! TO.C,C20*
X139175000Y-95400000D03*
X137625000Y-95400000D03*
G04 #@! TD*
D11*
G04 #@! TO.C,R36*
X132475000Y-95400000D03*
X134125000Y-95400000D03*
G04 #@! TD*
D10*
G04 #@! TO.C,R37*
X128925000Y-95400000D03*
X127275000Y-95400000D03*
G04 #@! TD*
D18*
G04 #@! TO.C,C19*
X126200000Y-99075000D03*
X126200000Y-97525000D03*
G04 #@! TD*
D19*
G04 #@! TO.C,R34*
X128500000Y-99125000D03*
X128500000Y-97475000D03*
G04 #@! TD*
D20*
G04 #@! TO.C,R35*
X139500000Y-98375000D03*
X139500000Y-100025000D03*
G04 #@! TD*
D15*
G04 #@! TO.C,C18*
X141500000Y-98425000D03*
X141500000Y-99975000D03*
G04 #@! TD*
D18*
G04 #@! TO.C,C1*
X144200000Y-100675000D03*
X144200000Y-99125000D03*
G04 #@! TD*
D15*
G04 #@! TO.C,C3*
X148100000Y-98825000D03*
X148100000Y-100375000D03*
G04 #@! TD*
D18*
G04 #@! TO.C,C5*
X152100000Y-100375000D03*
X152100000Y-98825000D03*
G04 #@! TD*
G04 #@! TO.C,C2*
X146100000Y-100375000D03*
X146100000Y-98825000D03*
G04 #@! TD*
G04 #@! TO.C,C4*
X150100000Y-100375000D03*
X150100000Y-98825000D03*
G04 #@! TD*
D19*
G04 #@! TO.C,R8*
X150100000Y-103725000D03*
X150100000Y-102075000D03*
G04 #@! TD*
G04 #@! TO.C,R9*
X152100000Y-103725000D03*
X152100000Y-102075000D03*
G04 #@! TD*
G04 #@! TO.C,R7*
X148100000Y-103725000D03*
X148100000Y-102075000D03*
G04 #@! TD*
G04 #@! TO.C,R6*
X146100000Y-103625000D03*
X146100000Y-101975000D03*
G04 #@! TD*
G04 #@! TO.C,R28*
X142700000Y-104225000D03*
X142700000Y-102575000D03*
G04 #@! TD*
G04 #@! TO.C,R29*
X140700000Y-104225000D03*
X140700000Y-102575000D03*
G04 #@! TD*
G04 #@! TO.C,R30*
X138700000Y-104225000D03*
X138700000Y-102575000D03*
G04 #@! TD*
D20*
G04 #@! TO.C,R2*
X146600000Y-105575000D03*
X146600000Y-107225000D03*
G04 #@! TD*
G04 #@! TO.C,R3*
X148600000Y-105875000D03*
X148600000Y-107525000D03*
G04 #@! TD*
G04 #@! TO.C,R5*
X152400000Y-105875000D03*
X152400000Y-107525000D03*
G04 #@! TD*
G04 #@! TO.C,R4*
X150400000Y-105875000D03*
X150400000Y-107525000D03*
G04 #@! TD*
D19*
G04 #@! TO.C,R1*
X144572000Y-106625000D03*
X144572000Y-104975000D03*
G04 #@! TD*
G04 #@! TO.C,R26*
X133800000Y-105125000D03*
X133800000Y-103475000D03*
G04 #@! TD*
G04 #@! TO.C,R33*
X125357000Y-104125000D03*
X125357000Y-102475000D03*
G04 #@! TD*
G04 #@! TO.C,R31*
X129434000Y-104225000D03*
X129434000Y-102575000D03*
G04 #@! TD*
G04 #@! TO.C,R32*
X127363000Y-104225000D03*
X127363000Y-102575000D03*
G04 #@! TD*
G04 #@! TO.C,R27*
X132100000Y-105125000D03*
X132100000Y-103475000D03*
G04 #@! TD*
D21*
G04 #@! TO.C,C17*
X136100000Y-103425000D03*
X136100000Y-106375000D03*
G04 #@! TD*
D15*
G04 #@! TO.C,C13*
X134900000Y-109325000D03*
X134900000Y-110875000D03*
G04 #@! TD*
G04 #@! TO.C,C12*
X137000000Y-109325000D03*
X137000000Y-110875000D03*
G04 #@! TD*
D19*
G04 #@! TO.C,R21*
X141800000Y-110925000D03*
X141800000Y-109275000D03*
G04 #@! TD*
G04 #@! TO.C,R24*
X130300000Y-110925000D03*
X130300000Y-109275000D03*
G04 #@! TD*
G04 #@! TO.C,R23*
X132500000Y-110925000D03*
X132500000Y-109275000D03*
G04 #@! TD*
G04 #@! TO.C,R25*
X127900000Y-110925000D03*
X127900000Y-109275000D03*
G04 #@! TD*
G04 #@! TO.C,R20*
X144100000Y-110925000D03*
X144100000Y-109275000D03*
G04 #@! TD*
G04 #@! TO.C,R22*
X139500000Y-110925000D03*
X139500000Y-109275000D03*
G04 #@! TD*
D22*
G04 #@! TO.C,C9*
X146500000Y-109250000D03*
X146500000Y-111150000D03*
G04 #@! TD*
G04 #@! TO.C,C16*
X125500000Y-109250000D03*
X125500000Y-111150000D03*
G04 #@! TD*
D15*
G04 #@! TO.C,C10*
X143900000Y-113225000D03*
X143900000Y-114775000D03*
G04 #@! TD*
D18*
G04 #@! TO.C,C11*
X139900000Y-114675000D03*
X139900000Y-113125000D03*
G04 #@! TD*
G04 #@! TO.C,C15*
X128000000Y-114775000D03*
X128000000Y-113225000D03*
G04 #@! TD*
D15*
G04 #@! TO.C,C14*
X132000000Y-113125000D03*
X132000000Y-114675000D03*
G04 #@! TD*
D19*
G04 #@! TO.C,R19*
X126200000Y-113150000D03*
X126200000Y-114800000D03*
G04 #@! TD*
G04 #@! TO.C,R15*
X138000000Y-114825000D03*
X138000000Y-113175000D03*
G04 #@! TD*
G04 #@! TO.C,R16*
X135900000Y-114825000D03*
X135900000Y-113175000D03*
G04 #@! TD*
G04 #@! TO.C,R12*
X148000000Y-114825000D03*
X148000000Y-113175000D03*
G04 #@! TD*
G04 #@! TO.C,R18*
X130000000Y-114825000D03*
X130000000Y-113175000D03*
G04 #@! TD*
G04 #@! TO.C,R13*
X145900000Y-114825000D03*
X145900000Y-113175000D03*
G04 #@! TD*
G04 #@! TO.C,R17*
X133900000Y-114825000D03*
X133900000Y-113175000D03*
G04 #@! TD*
G04 #@! TO.C,R14*
X141900000Y-114825000D03*
X141900000Y-113175000D03*
G04 #@! TD*
D23*
G04 #@! TO.C,*
X125300000Y-92600000D03*
G04 #@! TD*
G04 #@! TO.C,*
X125300000Y-93500000D03*
G04 #@! TD*
G04 #@! TO.C,*
X127000000Y-92636000D03*
G04 #@! TD*
G04 #@! TO.C,*
X127000000Y-93500000D03*
G04 #@! TD*
D24*
G04 #@! TO.C,*
X145000000Y-92400000D03*
G04 #@! TD*
D25*
G04 #@! TO.C,*
X142900000Y-83500000D03*
G04 #@! TD*
D24*
G04 #@! TO.C,*
X145000000Y-91600000D03*
G04 #@! TD*
D26*
G04 #@! TO.C,CON1*
X139949000Y-86969000D03*
X137917000Y-86969000D03*
X142743000Y-86969000D03*
X140711000Y-89509000D03*
X138679000Y-89509000D03*
X134615000Y-86969000D03*
X142743000Y-89509000D03*
X136647000Y-89509000D03*
X134615000Y-89509000D03*
D27*
X131440000Y-84175000D03*
X138679000Y-83413000D03*
X145918000Y-84175000D03*
G04 #@! TD*
D28*
G04 #@! TO.C,c*
X132350000Y-116433000D03*
X133468000Y-116433000D03*
G04 #@! TD*
D25*
G04 #@! TO.C,*
X151947000Y-84860000D03*
G04 #@! TD*
D23*
G04 #@! TO.C,1*
X138819000Y-107518000D03*
X140673000Y-107518000D03*
X142528000Y-107518000D03*
X138819000Y-106654000D03*
X140673000Y-106654000D03*
X142528000Y-106654000D03*
G04 #@! TD*
G04 #@! TO.C,1*
X125598000Y-107492000D03*
X127452000Y-107492000D03*
X129307000Y-107492000D03*
X125598000Y-106628000D03*
X127452000Y-106628000D03*
X129307000Y-106628000D03*
G04 #@! TD*
D28*
G04 #@! TO.C,e*
X140207000Y-116433000D03*
X141325000Y-116433000D03*
G04 #@! TD*
D25*
G04 #@! TO.C,5V1*
X152052000Y-119036000D03*
G04 #@! TD*
G04 #@! TO.C,*
X151947000Y-86760000D03*
G04 #@! TD*
D29*
G04 #@! TO.C,U1*
X130942000Y-97345000D03*
X130942000Y-98615000D03*
X130945000Y-99883000D03*
X130942000Y-101155000D03*
X137044000Y-101157000D03*
X137043000Y-99883000D03*
X137043000Y-98613000D03*
X137043000Y-97343000D03*
G04 #@! TD*
D25*
G04 #@! TO.C,B1*
X152027000Y-110299000D03*
G04 #@! TD*
D28*
G04 #@! TO.C,f*
X143590000Y-116433000D03*
X144708000Y-116433000D03*
G04 #@! TD*
D30*
G04 #@! TO.C,SR2*
X129243000Y-118681000D03*
G04 #@! TD*
D25*
G04 #@! TO.C,G1*
X152027000Y-112483000D03*
G04 #@! TD*
G04 #@! TO.C,*
X151947000Y-82960000D03*
G04 #@! TD*
D30*
G04 #@! TO.C,YR2*
X125687000Y-118681000D03*
G04 #@! TD*
D28*
G04 #@! TO.C,a*
X125585000Y-116433000D03*
X126703000Y-116433000D03*
G04 #@! TD*
D25*
G04 #@! TO.C,S1*
X152027000Y-116852000D03*
G04 #@! TD*
D28*
G04 #@! TO.C,b*
X128968000Y-116433000D03*
X130086000Y-116433000D03*
G04 #@! TD*
D30*
G04 #@! TO.C,YL1*
X147023000Y-118681000D03*
G04 #@! TD*
G04 #@! TO.C,SN1*
X136355000Y-118681000D03*
G04 #@! TD*
G04 #@! TO.C,XL1*
X143467000Y-118681000D03*
G04 #@! TD*
D28*
G04 #@! TO.C,g*
X146972000Y-116433000D03*
X148090000Y-116433000D03*
G04 #@! TD*
D31*
G04 #@! TO.C,U2*
X148042000Y-95273000D03*
X148692000Y-95273000D03*
X149342000Y-95273000D03*
X149993000Y-95273000D03*
X150642000Y-95273000D03*
X151291000Y-95273000D03*
X151941000Y-95273000D03*
X151941000Y-89272000D03*
X151291000Y-89272000D03*
X150642000Y-89272000D03*
X149993000Y-89272000D03*
X149342000Y-89272000D03*
X148692000Y-89272000D03*
X148042000Y-89272000D03*
G04 #@! TD*
D30*
G04 #@! TO.C,XR2*
X132799000Y-118681000D03*
G04 #@! TD*
G04 #@! TO.C,SL1*
X139911000Y-118681000D03*
G04 #@! TD*
D28*
G04 #@! TO.C,d*
X135707000Y-116433000D03*
X136825000Y-116433000D03*
X137942000Y-116433000D03*
G04 #@! TD*
D25*
G04 #@! TO.C,RIN*
X152027000Y-114668000D03*
G04 #@! TD*
M02*
