M48
; DRILL file {KiCad 9.0.1} date 2025-04-29T17:01:15-0700
; FORMAT={-:-/ absolute / metric / decimal}
; #@! TF.CreationDate,2025-04-29T17:01:15-07:00
; #@! TF.GenerationSoftware,Kicad,Pcbnew,9.0.1
; #@! TF.FileFunction,Plated,1,2,PTH
FMAT,2
METRIC
; #@! TA.AperFunction,Plated,PTH,ViaDrill
T1C0.305
; #@! TA.AperFunction,Plated,PTH,ComponentDrill
T2C1.016
; #@! TA.AperFunction,Plated,PTH,ComponentDrill
T3C2.286
%
G90
G05
T1
X124.9Y-99.6
X125.2Y-83.7
X126.9Y-112.0
X127.084Y-100.901
X127.706Y-117.779
X128.379Y-105.371
X129.0Y-94.1
X129.7Y-96.6
X129.992Y-112.115
X131.072Y-117.754
X132.126Y-106.54
X133.117Y-107.899
X133.955Y-112.026
X134.374Y-101.65
X134.666Y-117.754
X135.555Y-97.332
X137.9Y-112.0
X138.4Y-118.0
X140.343Y-101.333
X140.559Y-96.608
X140.6Y-108.5
X141.702Y-117.817
X142.0Y-112.0
X142.9Y-84.7
X142.946Y-97.497
X143.8Y-90.8
X145.22Y-101.294
X145.27Y-117.792
X145.29Y-111.602
X146.047Y-88.46
X146.159Y-104.584
X146.5Y-108.2
X146.947Y-89.36
X147.1Y-101.2
X147.5Y-86.4
X147.849Y-111.975
X148.1Y-87.8
X148.141Y-104.609
X148.636Y-117.741
X149.1Y-98.2
X149.147Y-82.96
X149.2Y-84.0
X149.868Y-115.328
X150.047Y-87.771
X150.084Y-104.609
X150.2Y-82.0
X150.3Y-117.716
X151.1Y-101.2
X151.247Y-91.06
X152.052Y-104.609
X152.154Y-92.29
T2
G00X134.615Y-86.971
M15
G01X134.615Y-86.966
M16
G05
G00X134.615Y-89.511
M15
G01X134.615Y-89.507
M16
G05
G00X136.647Y-89.511
M15
G01X136.647Y-89.507
M16
G05
G00X137.917Y-86.971
M15
G01X137.917Y-86.966
M16
G05
G00X138.679Y-89.511
M15
G01X138.679Y-89.507
M16
G05
G00X139.949Y-86.971
M15
G01X139.949Y-86.966
M16
G05
G00X140.711Y-89.511
M15
G01X140.711Y-89.507
M16
G05
G00X142.743Y-86.971
M15
G01X142.743Y-86.966
M16
G05
G00X142.743Y-89.511
M15
G01X142.743Y-89.507
M16
G05
T3
G00X131.44Y-84.177
M15
G01X131.44Y-84.172
M16
G05
G00X138.679Y-83.415
M15
G01X138.679Y-83.41
M16
G05
G00X145.918Y-84.177
M15
G01X145.918Y-84.172
M16
G05
M30
